<?xml version="1.0" standalone="no"?>
<!DOCTYPE svg PUBLIC "-//W3C//DTD SVG 20010904//EN"
 "http://www.w3.org/TR/2001/REC-SVG-20010904/DTD/svg10.dtd">
<svg version="1.0" xmlns="http://www.w3.org/2000/svg"
 width="512.000000pt" height="512.000000pt" viewBox="0 0 512.000000 512.000000"
 preserveAspectRatio="xMidYMid meet">

<g transform="translate(0.000000,512.000000) scale(0.100000,-0.100000)"
fill="#000000" stroke="none">
<path d="M2896 4730 c-42 -13 -73 -47 -95 -104 -22 -61 -41 -172 -41 -253 l-1
-58 -29 55 c-16 30 -43 97 -60 147 -44 130 -86 162 -191 150 -100 -12 -158
-61 -166 -140 -5 -47 31 -158 98 -306 l39 -86 -41 45 c-57 62 -98 122 -139
205 -59 117 -125 141 -241 89 -64 -29 -98 -70 -102 -123 -2 -24 -9 -33 -38
-44 -20 -8 -42 -11 -48 -8 -6 4 -22 36 -37 71 -39 97 -104 222 -128 248 -54
60 -108 66 -192 21 -72 -37 -102 -64 -120 -106 -22 -50 -18 -69 40 -192 69
-147 107 -260 113 -336 5 -52 0 -74 -30 -155 -40 -107 -67 -227 -67 -296 0
-42 -6 -54 -55 -114 -64 -78 -132 -217 -171 -345 -21 -71 -27 -118 -31 -226
-6 -151 9 -256 53 -363 22 -54 24 -74 24 -215 0 -166 17 -310 50 -440 101
-398 348 -792 658 -1052 319 -267 711 -438 1064 -465 71 -6 97 -3 154 14 153
47 248 141 341 339 61 132 105 291 163 598 27 145 70 352 95 460 65 281 82
367 95 482 29 263 -61 586 -206 743 -71 76 -163 133 -336 209 -220 96 -215 93
-250 167 -99 212 -1 346 315 432 183 50 199 79 163 304 -37 227 -50 238 -286
238 l-150 0 0 53 c0 28 7 79 15 112 20 82 18 124 -5 162 -24 40 -52 59 -116
78 -55 17 -66 17 -108 5z m89 -124 c40 -17 40 -17 20 -111 -8 -39 -15 -98 -15
-131 l0 -61 -46 -7 c-25 -3 -50 -3 -55 0 -23 14 0 246 31 303 13 25 20 26 65
7z m-1363 -131 c21 -39 54 -110 74 -158 40 -94 64 -121 125 -137 29 -8 48 -7
81 4 48 17 58 12 76 -39 5 -16 13 -37 16 -46 5 -11 -12 -30 -63 -67 -74 -56
-150 -147 -187 -226 -17 -37 -36 -58 -81 -87 -32 -21 -71 -48 -86 -60 l-28
-21 6 28 c13 55 48 159 68 199 17 33 19 53 14 130 -6 106 -41 220 -117 381
-27 59 -50 108 -50 110 0 9 88 63 100 61 8 -1 32 -34 52 -72z m943 -20 c17
-49 49 -123 69 -164 21 -40 36 -74 34 -75 -2 -2 -23 -13 -47 -25 -50 -25 -45
-30 -95 69 -35 67 -96 231 -96 256 0 19 36 34 74 31 26 -2 31 -9 61 -92z
m-386 -154 c42 -82 147 -221 187 -248 13 -8 24 -18 24 -22 0 -3 -17 -23 -36
-45 l-36 -38 -50 48 c-27 27 -71 76 -96 108 -54 71 -134 220 -126 239 5 14 48
34 76 36 13 1 30 -23 57 -78z m1247 -236 c22 -130 20 -155 -11 -155 -32 0
-194 -54 -263 -88 -91 -44 -183 -129 -215 -199 -17 -38 -22 -66 -22 -140 0
-58 -4 -89 -10 -85 -5 3 -69 45 -141 94 -154 103 -273 167 -367 198 -78 25
-78 26 -24 119 72 123 211 241 356 300 158 66 299 89 516 87 l160 -1 21 -130z
m-1247 -149 l74 -75 -24 -56 c-27 -63 -42 -75 -67 -52 -38 34 -135 70 -204 75
-37 2 -68 7 -68 10 0 29 169 172 204 172 6 0 45 -33 85 -74z m-186 -233 c4 -3
-18 -20 -48 -37 -241 -136 -517 -514 -620 -849 -17 -53 -33 -97 -37 -97 -8 0
-13 80 -9 170 5 123 41 250 109 383 81 160 306 370 446 419 50 17 146 24 159
11z m332 -98 c98 -25 209 -84 425 -228 113 -75 216 -143 229 -153 28 -20 93
-154 115 -239 23 -84 31 -254 17 -345 -15 -97 -53 -215 -99 -310 l-37 -75
-339 -128 -339 -127 -52 14 c-68 20 -128 65 -160 120 -24 42 -33 66 -49 138
-13 56 -66 76 -101 38 -44 -48 13 -216 106 -311 28 -28 49 -53 47 -54 -16 -15
-190 -38 -303 -41 -150 -4 -165 -9 -165 -60 0 -54 53 -70 204 -61 90 5 323 45
371 64 15 5 17 3 10 -13 -4 -10 -15 -44 -24 -76 -17 -63 -8 -101 27 -110 38
-10 65 14 88 79 27 81 65 137 112 167 20 14 116 54 212 90 96 35 196 74 222
85 l47 20 -113 -222 c-188 -372 -276 -632 -294 -867 -9 -113 -2 -258 17 -340
5 -24 8 -46 6 -48 -4 -4 -156 72 -230 116 -438 261 -776 738 -886 1252 -20 89
-23 135 -23 305 0 220 15 319 75 500 91 273 283 564 472 713 142 113 265 145
412 107z m1133 -607 c154 -93 253 -284 282 -545 17 -153 6 -233 -86 -637 -30
-132 -75 -346 -99 -477 -54 -284 -84 -403 -132 -524 -66 -168 -142 -266 -243
-314 -48 -23 -67 -26 -145 -24 -93 1 -187 18 -312 54 l-71 21 -23 82 c-31 111
-38 333 -15 461 28 150 78 306 158 490 50 115 289 575 299 575 4 0 11 -10 15
-22 13 -41 93 -115 155 -143 48 -21 67 -37 90 -73 54 -85 63 -175 30 -282 -23
-72 -16 -106 23 -116 44 -11 64 4 87 64 15 38 24 87 27 147 4 87 -4 129 -43
218 -5 13 -2 17 11 17 31 0 137 56 172 90 36 36 39 55 16 88 -21 31 -59 28
-104 -8 -95 -75 -219 -78 -305 -7 -83 68 -93 157 -43 356 30 115 33 139 33
281 0 157 0 157 -51 338 -6 21 1 19 107 -28 62 -27 137 -65 167 -82z"/>
</g>
</svg>
