<svg xmlns="http://www.w3.org/2000/svg" version="1.1" xmlns:xlink="http://www.w3.org/1999/xlink" xmlns:svgjs="http://svgjs.com/svgjs" width="512" height="512" x="0" y="0" viewBox="0 0 256 256" style="enable-background:new 0 0 512 512" xml:space="preserve" class=""><g><path d="m190.42 195.283-.29-117.31a13.69 13.69 0 0 0-13.671-13.638h-.023a13.589 13.589 0 0 0-7.693 2.393V49.366a14.76 14.76 0 0 0-23.578-11.844v-4.998a14.768 14.768 0 0 0-29.536 0v1.63a14.689 14.689 0 0 0-8.81-2.923h-1.109a13.69 13.69 0 0 0-13.671 13.657L92 93.209a22.572 22.572 0 0 0-16.607-7.335h-.02a11.436 11.436 0 0 0-11.421 11.398l-.106 52.372a25.61 25.61 0 0 0 2.424 10.89l16.99 36.097a23.584 23.584 0 0 0 18.248 13.282l.12 27.614a3 3 0 0 0 3 2.988h.013a3 3 0 0 0 2.987-3.013l-.132-30.408a3 3 0 0 0-3-2.987 17.543 17.543 0 0 1-15.808-10.03l-16.99-36.097a19.586 19.586 0 0 1-1.852-8.325l.106-52.37a5.428 5.428 0 0 1 5.421-5.41h.01a16.656 16.656 0 0 1 16.592 16.578l.056 32.628a3 3 0 0 0 3 2.995h.005a3 3 0 0 0 2.995-3.005l-.056-32.631c0-.042-.003-.083-.003-.124.002-.054.016-.105.016-.16l.05-63.264a7.682 7.682 0 0 1 7.672-7.662h1.108a8.778 8.778 0 0 1 8.767 8.768v71.727a3.037 3.037 0 0 0 3.044 3 3 3 0 0 0 3-3v-85.2a8.768 8.768 0 0 1 17.535 0v76.795l.044 8.42a3 3 0 0 0 3 2.985h.007a3 3 0 0 0 2.993-3V49.366a8.768 8.768 0 0 1 17.535 0v59.954l.043 8.42a3 3 0 0 0 3 2.985h.008a3 3 0 0 0 2.992-3V78.007a7.683 7.683 0 0 1 7.66-7.672h.013a7.682 7.682 0 0 1 7.671 7.653l.29 117.31a8.786 8.786 0 0 1-8.785 8.808 3 3 0 0 0-3 3.001l.008 30.64a3 3 0 0 0 3 3h.001a3 3 0 0 0 3-3.001l-.008-27.942a14.798 14.798 0 0 0 11.784-14.52z" fill="#000000" data-original="#000000" class=""></path></g></svg>