<?xml version="1.0" standalone="no"?>
<!DOCTYPE svg PUBLIC "-//W3C//DTD SVG 20010904//EN"
 "http://www.w3.org/TR/2001/REC-SVG-20010904/DTD/svg10.dtd">
<svg version="1.0" xmlns="http://www.w3.org/2000/svg"
 width="512.000000pt" height="512.000000pt" viewBox="0 0 512.000000 512.000000"
 preserveAspectRatio="xMidYMid meet">

<g transform="translate(0.000000,512.000000) scale(0.100000,-0.100000)"
fill="#000000" stroke="none">
<path d="M2410 4739 c-32 -13 -68 -47 -86 -81 -20 -39 -20 -694 0 -800 66
-339 310 -618 634 -723 l52 -17 -51 -96 c-171 -319 -314 -453 -612 -577 -141
-59 -291 -130 -326 -154 -24 -17 -53 -19 -346 -24 -367 -5 -416 -13 -583 -92
-283 -134 -474 -386 -527 -695 -13 -71 -15 -176 -13 -578 3 -480 3 -491 24
-519 11 -15 36 -38 54 -50 30 -21 44 -23 175 -23 131 0 145 2 175 22 18 13 43
36 54 51 20 28 21 41 26 535 6 558 4 539 71 644 80 124 226 198 392 198 41 0
48 -2 43 -17 -33 -109 -35 -279 -6 -403 58 -242 269 -522 504 -668 655 -409
1607 -140 2096 592 140 209 250 476 310 752 41 189 52 289 57 534 12 540 -66
822 -286 1040 -97 96 -178 142 -295 167 -158 34 -349 -13 -516 -126 -42 -29
-50 -31 -140 -31 -52 0 -115 5 -139 11 -146 33 -267 147 -313 292 -16 52 -18
97 -18 386 0 319 -1 328 -22 371 -37 73 -83 90 -238 89 -69 0 -136 -5 -150
-10z m280 -128 c6 -13 10 -138 10 -338 0 -356 4 -385 66 -504 69 -131 209
-239 355 -274 38 -9 113 -15 184 -15 l120 0 50 36 c407 294 812 73 911 -496
22 -129 30 -520 14 -677 -30 -304 -107 -576 -231 -824 -164 -329 -446 -611
-765 -764 -398 -193 -855 -205 -1189 -32 -262 136 -482 401 -541 654 -24 104
-16 266 20 366 15 42 25 86 21 96 -11 35 -57 44 -198 38 -106 -4 -145 -10
-198 -29 -173 -64 -284 -171 -349 -338 l-25 -65 -3 -495 c-2 -332 -7 -498 -14
-507 -16 -19 -231 -18 -247 1 -9 11 -11 143 -9 518 4 544 3 534 62 680 94 232
312 418 568 484 50 13 132 17 393 21 324 4 331 5 365 28 58 37 134 74 312 150
91 39 206 96 254 126 106 65 250 204 318 307 59 90 216 381 216 402 0 31 -30
58 -72 65 -24 4 -80 21 -125 37 -264 95 -458 322 -518 604 -19 91 -22 733 -3
752 8 8 50 12 125 12 101 0 113 -2 123 -19z"/>
<path d="M3695 2701 c-65 -29 -115 -104 -115 -171 0 -37 24 -94 53 -127 40
-45 82 -63 149 -63 133 0 223 136 173 258 -44 104 -158 150 -260 103z m134
-127 c12 -15 21 -37 21 -50 0 -62 -90 -88 -129 -38 -27 35 -26 59 4 89 33 34
77 33 104 -1z"/>
<path d="M2560 2234 c-30 -14 -104 -46 -165 -71 -146 -60 -196 -86 -283 -146
-210 -145 -324 -363 -292 -561 33 -205 203 -436 415 -562 295 -177 717 -178
1085 -3 388 185 668 511 815 953 41 121 85 304 85 353 0 66 40 63 -825 63
l-780 0 -55 -26z m1530 -100 c0 -3 -12 -51 -26 -107 -72 -287 -208 -545 -386
-733 -358 -378 -917 -519 -1313 -330 -97 45 -155 86 -225 156 -105 105 -178
232 -199 346 -38 201 124 421 399 543 41 18 125 54 185 81 l110 48 728 1 c400
0 727 -2 727 -5z"/>
<path d="M3039 2047 c-165 -87 -134 -341 47 -386 151 -38 290 98 254 248 -31
132 -182 201 -301 138z m159 -119 c48 -52 32 -127 -31 -147 -62 -21 -117 20
-117 87 0 72 98 112 148 60z"/>
<path d="M3431 1802 c-98 -49 -113 -175 -31 -253 45 -43 95 -55 148 -38 72 23
112 79 112 157 0 115 -124 188 -229 134z m104 -136 c0 -17 -7 -33 -18 -40 -15
-9 -22 -7 -37 12 -26 32 -11 65 28 60 22 -2 27 -8 27 -32z"/>
</g>
</svg>
