<?xml version="1.0" standalone="no"?>
<!DOCTYPE svg PUBLIC "-//W3C//DTD SVG 20010904//EN"
 "http://www.w3.org/TR/2001/REC-SVG-20010904/DTD/svg10.dtd">
<svg version="1.0" xmlns="http://www.w3.org/2000/svg"
 width="512.000000pt" height="512.000000pt" viewBox="0 0 512.000000 512.000000"
 preserveAspectRatio="xMidYMid meet">

<g transform="translate(0.000000,512.000000) scale(0.100000,-0.100000)"
fill="#000000" stroke="none">
<path d="M3622 4723 c-250 -144 -552 -429 -754 -710 -237 -330 -411 -710 -521
-1138 -74 -286 -109 -536 -128 -896 -16 -315 8 -458 102 -598 86 -129 225
-187 372 -156 128 27 204 87 233 183 29 96 11 193 -87 468 -53 150 -73 221
-85 302 -21 156 -29 446 -15 577 64 588 364 1172 924 1800 121 135 136 165
101 199 -25 26 -55 19 -142 -31z m-357 -464 c-283 -380 -485 -781 -580 -1154
-56 -218 -70 -332 -69 -580 0 -145 6 -261 16 -341 16 -118 30 -166 132 -459
54 -157 66 -245 41 -298 -21 -44 -48 -63 -121 -82 -72 -19 -119 -11 -187 29
-85 51 -134 150 -157 317 -13 92 0 408 25 624 90 775 384 1442 847 1921 66 68
122 124 124 124 2 0 -30 -45 -71 -101z"/>
<path d="M2094 4134 c-198 -119 -414 -336 -570 -574 -183 -280 -301 -579 -387
-985 l-12 -60 -370 -5 -369 -5 -13 -25 c-10 -20 -13 -221 -11 -985 3 -890 4
-963 20 -997 28 -58 78 -109 133 -134 l50 -24 2016 0 2015 0 52 26 c57 28 96
69 123 129 18 38 19 93 19 1012 0 870 -2 973 -16 987 -14 14 -75 16 -525 16
l-510 0 6 48 c58 410 271 881 636 1404 94 134 105 165 67 192 -34 24 -49 20
-134 -35 -112 -73 -206 -152 -305 -257 -314 -330 -523 -760 -629 -1294 l-11
-58 -59 0 c-209 0 -405 -172 -442 -390 -16 -91 -8 -127 75 -350 80 -216 91
-262 85 -357 -4 -61 -10 -81 -34 -116 -36 -51 -108 -101 -177 -123 -82 -26
-255 -30 -334 -9 -168 46 -285 189 -329 406 -14 70 -15 110 -9 244 14 265 11
332 -14 398 -45 116 -151 222 -269 268 -48 19 -81 24 -209 27 l-153 4 0 28 c0
40 36 209 66 315 98 334 322 762 607 1159 31 43 57 87 57 97 0 24 -35 59 -58
59 -10 0 -45 -16 -78 -36z m2030 -341 c-44 -68 -142 -238 -200 -348 -154 -294
-254 -584 -301 -880 l-8 -50 -60 0 -60 0 3 30 c2 16 19 90 37 165 102 410 290
777 534 1043 67 71 85 84 55 40z m-2320 -125 c-212 -357 -360 -723 -408 -1013
-10 -55 -19 -110 -22 -122 -4 -21 -10 -23 -65 -23 l-61 0 7 43 c16 92 66 279
110 407 75 218 193 449 315 616 53 73 191 233 202 234 3 0 -32 -64 -78 -142z
m44 -1311 c60 -32 123 -91 148 -139 16 -31 16 -33 -4 -46 -11 -7 -48 -35 -81
-62 -99 -79 -160 -79 -260 1 -81 66 -137 90 -210 90 -83 1 -132 -17 -202 -74
-127 -102 -184 -102 -305 1 -67 56 -114 74 -195 74 -78 0 -132 -21 -197 -75
-24 -21 -48 -37 -53 -37 -5 0 -9 67 -9 150 l0 151 658 -3 657 -3 53 -28z
m2822 -132 l0 -166 -22 12 c-13 7 -43 29 -66 50 -68 60 -119 80 -201 80 -85 0
-131 -18 -219 -89 -102 -82 -162 -82 -264 0 -88 71 -134 89 -219 89 -84 0
-130 -19 -208 -86 -107 -92 -165 -87 -306 25 -27 22 -71 45 -97 52 -26 6 -48
16 -48 21 0 5 28 37 63 71 111 111 56 105 880 105 l707 1 0 -165z m-3850 -163
c13 -8 48 -35 77 -58 67 -54 144 -79 220 -70 67 8 109 29 191 95 63 50 82 57
152 51 33 -3 53 -14 120 -65 74 -57 108 -73 173 -81 79 -9 148 14 226 76 l63
52 -8 -74 c-5 -40 -9 -149 -8 -243 1 -197 17 -275 84 -412 75 -152 218 -263
378 -294 81 -15 278 -6 352 16 131 40 216 106 271 207 28 54 34 75 37 151 6
111 -10 177 -94 405 -36 94 -67 192 -71 217 l-6 45 34 0 c37 0 53 -9 136 -77
54 -43 131 -73 188 -73 58 0 134 30 188 74 84 69 101 77 155 78 58 0 76 -9
157 -74 128 -103 262 -103 390 0 81 65 99 74 157 74 54 -1 71 -9 155 -78 29
-24 71 -49 93 -55 l40 -12 0 -689 c0 -760 3 -728 -63 -768 -31 -20 -66 -20
-2027 -20 -1960 0 -1996 0 -2027 20 -72 44 -68 -4 -71 767 l-3 694 32 17 c17
9 59 39 92 65 34 26 73 50 87 53 14 3 30 7 35 9 18 5 70 -7 95 -23z"/>
<path d="M1345 1958 c-37 -20 -55 -52 -55 -96 0 -110 148 -144 199 -45 21 42
13 83 -23 119 -36 36 -81 44 -121 22z m56 -101 c-13 -13 -26 -3 -16 12 3 6 11
8 17 5 6 -4 6 -10 -1 -17z"/>
<path d="M3733 1923 c-38 -7 -73 -59 -73 -107 0 -108 145 -142 195 -46 19 37
19 63 -1 101 -13 27 -69 62 -91 58 -4 -1 -18 -4 -30 -6z m37 -103 c0 -5 -4
-10 -10 -10 -5 0 -10 5 -10 10 0 6 5 10 10 10 6 0 10 -4 10 -10z"/>
<path d="M593 1856 c-33 -15 -63 -60 -63 -96 0 -37 30 -81 65 -96 45 -19 90
-8 120 28 72 85 -21 209 -122 164z m57 -96 c0 -5 -4 -10 -10 -10 -5 0 -10 5
-10 10 0 6 5 10 10 10 6 0 10 -4 10 -10z"/>
<path d="M4191 1796 c-31 -17 -50 -53 -51 -94 0 -46 54 -102 99 -102 68 0 111
45 111 113 -1 74 -90 121 -159 83z m63 -97 c-3 -5 -10 -7 -15 -3 -5 3 -7 10
-3 15 3 5 10 7 15 3 5 -3 7 -10 3 -15z"/>
<path d="M1710 1763 c-53 -19 -82 -89 -60 -143 16 -39 51 -60 100 -60 108 0
140 149 43 199 -23 12 -58 13 -83 4z m50 -103 c0 -5 -4 -10 -10 -10 -5 0 -10
5 -10 10 0 6 5 10 10 10 6 0 10 -4 10 -10z"/>
<path d="M3354 1751 c-89 -54 -48 -191 56 -191 47 0 96 37 105 79 9 41 -17 96
-54 115 -40 21 -69 20 -107 -3z m66 -91 c0 -5 -4 -10 -10 -10 -5 0 -10 5 -10
10 0 6 5 10 10 10 6 0 10 -4 10 -10z"/>
<path d="M1087 1624 c-68 -68 -21 -184 75 -184 65 0 114 70 97 135 -21 74
-119 102 -172 49z m83 -74 c0 -5 -4 -10 -10 -10 -5 0 -10 5 -10 10 0 6 5 10
10 10 6 0 10 -4 10 -10z"/>
<path d="M4452 1525 c-46 -20 -68 -75 -53 -127 23 -76 115 -98 172 -42 53 53
40 137 -26 169 -40 18 -51 18 -93 0z m58 -95 c0 -5 -4 -10 -10 -10 -5 0 -10 5
-10 10 0 6 5 10 10 10 6 0 10 -4 10 -10z"/>
<path d="M3904 1446 c-88 -39 -85 -158 5 -196 39 -16 76 -6 112 30 53 52 34
136 -37 166 -40 17 -41 17 -80 0z m56 -96 c0 -5 -7 -10 -15 -10 -8 0 -15 5
-15 10 0 6 7 10 15 10 8 0 15 -4 15 -10z"/>
<path d="M1560 1396 c-87 -29 -99 -150 -18 -192 35 -18 62 -18 98 1 63 33 75
117 25 168 -31 30 -62 37 -105 23z m40 -96 c0 -5 -4 -10 -10 -10 -5 0 -10 5
-10 10 0 6 5 10 10 10 6 0 10 -4 10 -10z"/>
<path d="M834 1340 c-35 -14 -64 -59 -64 -101 0 -46 37 -95 79 -104 61 -13
131 43 131 105 0 37 -30 81 -65 96 -39 16 -51 16 -81 4z m46 -100 c0 -5 -4
-10 -10 -10 -5 0 -10 5 -10 10 0 6 5 10 10 10 6 0 10 -4 10 -10z"/>
<path d="M3313 1336 c-33 -15 -63 -60 -63 -96 0 -38 30 -81 67 -96 45 -19 83
-11 118 26 78 82 -18 212 -122 166z m57 -96 c0 -5 -4 -10 -10 -10 -5 0 -10 5
-10 10 0 6 5 10 10 10 6 0 10 -4 10 -10z"/>
<path d="M1834 1076 c-47 -47 -47 -95 0 -142 69 -69 176 -26 176 71 0 97 -107
140 -176 71z m80 -77 c-3 -5 -10 -7 -15 -3 -5 3 -7 10 -3 15 3 5 10 7 15 3 5
-3 7 -10 3 -15z"/>
<path d="M1313 990 c-41 -25 -58 -79 -39 -125 19 -43 52 -65 101 -65 106 0
140 146 45 195 -39 20 -68 19 -107 -5z m67 -90 c0 -5 -4 -10 -10 -10 -5 0 -10
5 -10 10 0 6 5 10 10 10 6 0 10 -4 10 -10z"/>
<path d="M3900 1003 c-47 -17 -81 -84 -66 -131 24 -73 122 -97 177 -43 79 79
-6 212 -111 174z m50 -103 c0 -5 -4 -10 -10 -10 -5 0 -10 5 -10 10 0 6 5 10
10 10 6 0 10 -4 10 -10z"/>
<path d="M2835 867 c-29 -29 -35 -42 -35 -77 0 -58 41 -100 100 -100 52 0 76
13 95 50 37 71 -3 146 -82 157 -39 5 -46 2 -78 -30z m80 -77 c-3 -5 -10 -10
-16 -10 -5 0 -9 5 -9 10 0 6 7 10 16 10 8 0 12 -4 9 -10z"/>
<path d="M708 840 c-39 -30 -52 -71 -38 -114 15 -47 53 -76 99 -76 46 0 79 23
98 67 39 95 -79 187 -159 123z m72 -85 c0 -8 -4 -15 -10 -15 -5 0 -10 7 -10
15 0 8 5 15 10 15 6 0 10 -7 10 -15z"/>
<path d="M3351 814 c-83 -59 -43 -194 58 -194 100 0 145 121 70 184 -36 31
-92 35 -128 10z m69 -89 c0 -8 -4 -15 -10 -15 -5 0 -10 7 -10 15 0 8 5 15 10
15 6 0 10 -7 10 -15z"/>
<path d="M4385 789 c-37 -21 -55 -53 -55 -97 0 -108 144 -143 195 -47 22 40
14 93 -19 124 -28 26 -92 37 -121 20z m56 -102 c-13 -13 -26 -3 -16 12 3 6 11
8 17 5 6 -4 6 -10 -1 -17z"/>
<path d="M2174 760 c-60 -24 -83 -113 -44 -163 62 -79 190 -37 190 63 0 75
-77 128 -146 100z m56 -100 c0 -5 -7 -10 -15 -10 -8 0 -15 5 -15 10 0 6 7 10
15 10 8 0 15 -4 15 -10z"/>
</g>
</svg>
