<svg xmlns="http://www.w3.org/2000/svg" version="1.1" xmlns:xlink="http://www.w3.org/1999/xlink" xmlns:svgjs="http://svgjs.com/svgjs" width="512" height="512" x="0" y="0" viewBox="0 0 128 128" style="enable-background:new 0 0 512 512" xml:space="preserve" class=""><g><path d="M59.341 102.124H27.182a6.757 6.757 0 0 0-6.75 6.75v10a1.749 1.749 0 0 0 1.75 1.75h83.636a1.749 1.749 0 0 0 1.75-1.75v-10a6.758 6.758 0 0 0-6.75-6.75h-.886v-4.75a20.262 20.262 0 0 0-.356-3.71c2.106-4.35 9.108-20.769 1.793-33.524C97.561 53.5 90.8 49.237 81.255 47.449L90.7 29.64a1.75 1.75 0 0 0-.726-2.366l-1.083-.574 1.64-3.092 1.084.576a1.75 1.75 0 0 0 2.366-.726l3.28-6.184a1.75 1.75 0 0 0-.726-2.366L82.722 7.58a1.749 1.749 0 0 0-2.366.726l-3.28 6.184a1.749 1.749 0 0 0 .726 2.365l1.084.576-1.64 3.092-1.084-.575a1.749 1.749 0 0 0-2.366.726L55.819 54.565l-3.192-1.693a1.75 1.75 0 0 0-2.366.726l-3.28 6.183a1.75 1.75 0 0 0 .726 2.366L71 74.5a1.75 1.75 0 0 0 2.366-.726l3.28-6.184a1.75 1.75 0 0 0-.726-2.366l-3.192-1.693 1.789-3.374c7.845.623 12.938 2.863 15.13 6.676 2.168 3.759 1.607 9.04.559 13.246a20.163 20.163 0 0 0-25.329 3.41H45.38a11.742 11.742 0 0 0-11.117 7.956l-1.1 3.23a1.75 1.75 0 0 0 1.657 2.315h24.54c-.034 1.775-.013 3.204-.019 5.134zm23.287-90.632 10.721 5.687-1.64 3.091-1.082-.57-4.277-2.268-5.36-2.844zm4.811 10.475L85.8 25.059l-5.461-2.9 1.64-3.092 2.73 1.448zm16.629 86.907v8.25H23.932v-8.25a3.254 3.254 0 0 1 3.25-3.25h73.636a3.254 3.254 0 0 1 3.25 3.25zM71.091 70.589l-20.2-10.714 1.64-3.091 20.2 10.716zm-12.18-14.384L76.068 23.86l10.721 5.686-17.156 32.346zm33.766 8.883c-2.641-4.594-8.154-7.368-16.389-8.274L79.53 50.7c9.066 1.476 15.393 5.229 18.8 11.179 5.2 9.074 2.044 20.567-.393 26.782a20.389 20.389 0 0 0-4.732-6.335c1.595-5.562 2.376-12.204-.528-17.238zM79.636 80.579a16.814 16.814 0 0 1 16.8 16.8v4.75H62.841v-4.75a16.814 16.814 0 0 1 16.795-16.8zM37.265 93.49l.311-.916a8.243 8.243 0 0 1 7.8-5.584h16.855a20.119 20.119 0 0 0-2.508 6.5z" fill="#000000" data-original="#000000"></path></g></svg>