<?xml version="1.0" standalone="no"?>
<!DOCTYPE svg PUBLIC "-//W3C//DTD SVG 20010904//EN"
 "http://www.w3.org/TR/2001/REC-SVG-20010904/DTD/svg10.dtd">
<svg version="1.0" xmlns="http://www.w3.org/2000/svg"
 width="512.000000pt" height="512.000000pt" viewBox="0 0 512.000000 512.000000"
 preserveAspectRatio="xMidYMid meet">

<g transform="translate(0.000000,512.000000) scale(0.100000,-0.100000)"
fill="#000000" stroke="none">
<path d="M1110 4453 c-78 -13 -185 -50 -264 -90 -74 -38 -108 -64 -181 -138
-213 -215 -315 -510 -315 -906 1 -428 117 -755 359 -1012 252 -267 580 -357
898 -248 294 101 424 383 328 714 l-22 79 43 -43 c23 -23 53 -65 66 -93 l23
-51 5 -1098 c5 -1073 5 -1099 24 -1113 27 -19 52 -18 76 6 20 20 20 33 20
1098 0 1159 1 1132 -51 1234 -27 54 -112 143 -165 174 -23 13 -62 31 -88 40
-51 18 -86 59 -131 156 -38 81 -37 82 48 75 219 -19 428 -161 524 -357 76
-154 73 -106 73 -1320 0 -1067 0 -1080 20 -1100 26 -26 55 -25 80 0 20 20 21
27 18 1143 l-3 1122 -33 95 c-18 52 -52 127 -74 165 -40 68 -151 189 -213 233
l-30 21 46 1 c125 1 206 78 197 187 -7 82 -59 140 -136 150 l-42 6 0 46 c0 63
-33 118 -89 148 -37 19 -59 23 -138 23 l-93 0 0 78 c0 125 -39 230 -124 334
-84 103 -242 203 -368 233 -58 14 -227 18 -288 8z m271 -129 c215 -63 378
-241 388 -421 4 -95 -14 -151 -91 -276 -75 -122 -98 -192 -98 -301 0 -127 27
-202 126 -352 147 -222 180 -435 94 -611 -71 -145 -236 -226 -460 -226 -130 0
-204 18 -324 81 -205 107 -383 332 -470 592 -48 146 -67 259 -73 447 -9 260
26 459 112 642 115 242 271 376 499 426 87 19 231 18 297 -1z m690 -654 c22
-12 26 -59 7 -78 -8 -8 -56 -12 -150 -12 l-138 0 15 25 c8 14 22 36 30 50 15
24 19 25 116 25 55 0 109 -5 120 -10z m187 -222 c17 -17 15 -54 -4 -72 -13
-14 -53 -16 -285 -16 -300 0 -283 -4 -258 69 l11 31 262 0 c190 0 265 -3 274
-12z"/>
<path d="M3737 4444 c-134 -32 -295 -141 -384 -258 -73 -98 -95 -159 -101
-283 l-4 -103 -92 0 c-75 0 -100 -4 -136 -22 -62 -32 -90 -77 -90 -144 l0 -54
-34 0 c-73 0 -146 -81 -146 -162 0 -105 59 -165 176 -176 l67 -7 -41 -29
c-100 -69 -207 -208 -259 -336 -54 -134 -53 -109 -53 -1297 l0 -1102 22 -15
c31 -22 51 -20 76 7 l22 23 0 1091 c0 1052 1 1092 20 1167 30 120 82 209 175
302 92 93 201 154 320 179 65 14 155 20 155 11 0 -20 -39 -103 -71 -153 -35
-54 -47 -64 -90 -78 -66 -22 -157 -84 -197 -135 -18 -22 -48 -71 -65 -108
l-32 -67 -3 -1110 -3 -1110 22 -17 c29 -24 51 -23 77 5 l22 23 0 1077 c0 966
2 1081 16 1124 19 55 67 126 99 147 l23 15 -25 -77 c-33 -103 -41 -242 -19
-335 48 -204 187 -338 413 -398 120 -32 299 -30 416 5 199 59 361 177 503 365
195 260 285 585 271 981 -6 172 -24 278 -69 420 -111 348 -339 570 -650 634
-94 19 -252 19 -331 0z m332 -124 c156 -38 287 -122 383 -249 196 -259 267
-692 182 -1111 -45 -219 -146 -417 -292 -572 -158 -167 -338 -252 -537 -252
-123 0 -199 16 -291 60 -194 92 -269 305 -193 549 27 88 58 150 121 244 93
137 125 242 115 381 -6 89 -32 156 -105 269 -84 128 -104 249 -62 367 48 137
206 275 367 319 74 20 215 18 312 -5z m-755 -684 c14 -25 26 -47 26 -50 0 -3
-60 -6 -133 -6 -143 0 -157 5 -157 50 0 44 16 50 131 50 l107 0 26 -44z m115
-213 c6 -21 11 -44 11 -50 0 -17 -521 -19 -551 -3 -22 12 -26 59 -7 78 9 9 84
12 275 12 l262 0 10 -37z"/>
</g>
</svg>
