<?xml version="1.0" standalone="no"?>
<!DOCTYPE svg PUBLIC "-//W3C//DTD SVG 20010904//EN"
 "http://www.w3.org/TR/2001/REC-SVG-20010904/DTD/svg10.dtd">
<svg version="1.0" xmlns="http://www.w3.org/2000/svg"
 width="512.000000pt" height="512.000000pt" viewBox="0 0 512.000000 512.000000"
 preserveAspectRatio="xMidYMid meet">

<g transform="translate(0.000000,512.000000) scale(0.100000,-0.100000)"
fill="#000000" stroke="none">
<path d="M1967 4749 c-206 -23 -378 -132 -454 -287 -36 -72 -38 -82 -40 -181
l-2 -105 -70 -12 c-246 -41 -406 -169 -429 -343 -11 -76 1 -147 34 -213 13
-26 24 -49 24 -51 0 -2 -30 -19 -67 -38 -229 -115 -336 -403 -232 -624 l21
-45 -66 -71 c-156 -168 -245 -359 -246 -525 0 -71 32 -189 75 -275 36 -70 146
-195 217 -245 27 -19 27 -19 17 -92 -23 -164 41 -346 172 -486 83 -89 171
-150 306 -212 54 -24 109 -50 122 -57 20 -10 28 -28 47 -116 45 -200 142 -349
268 -411 184 -91 413 -37 601 141 120 114 203 248 266 428 l32 93 28 -83 c125
-372 398 -620 683 -621 241 -1 394 161 465 490 l16 73 91 38 c163 67 300 161
387 266 57 68 119 193 136 273 13 63 14 172 2 225 -8 35 -7 39 19 52 49 26
139 115 188 189 177 264 128 570 -135 847 l-72 75 24 50 c103 217 -3 504 -229
620 l-73 38 31 60 c28 55 31 70 31 151 0 107 -19 157 -87 231 -80 88 -191 142
-343 168 l-70 12 3 70 c2 38 -1 91 -8 118 -51 228 -291 390 -575 388 -182 -1
-322 -58 -442 -177 l-72 -72 -41 48 c-120 142 -343 222 -553 198z m254 -144
c286 -97 360 -342 160 -528 -79 -73 -201 -134 -438 -218 -109 -39 -208 -77
-220 -85 -40 -26 -20 -104 27 -104 10 0 106 32 214 70 203 73 222 76 272 43
29 -19 48 -66 39 -100 -10 -41 -49 -88 -111 -134 -92 -70 -84 -115 24 -148
131 -40 261 -155 299 -266 21 -64 14 -185 -15 -241 -36 -70 -107 -120 -187
-131 -41 -5 -48 -3 -86 32 -90 81 -221 118 -333 95 -51 -10 -61 -17 -89 -56
-55 -78 -173 -134 -283 -134 -52 0 -174 23 -233 44 -56 21 -67 20 -91 -4 -25
-25 -26 -62 -2 -83 27 -24 181 -65 274 -72 158 -13 292 34 398 138 l62 60 52
-6 c68 -7 146 -46 185 -94 27 -33 31 -45 31 -101 0 -70 -25 -156 -71 -243 -41
-77 -130 -190 -165 -211 -16 -9 -71 -22 -122 -29 -160 -20 -345 12 -468 82
-28 16 -60 29 -69 29 -28 0 -55 -30 -55 -61 0 -51 109 -112 269 -151 68 -17
115 -21 226 -20 77 0 156 4 175 9 41 10 170 -1 254 -22 147 -37 277 -129 330
-234 25 -49 26 -54 15 -118 -7 -38 -10 -114 -7 -180 l5 -113 -39 -41 c-97
-100 -210 -103 -328 -9 -60 47 -74 42 -171 -63 -48 -50 -111 -107 -142 -125
-73 -44 -176 -78 -277 -92 l-82 -11 -102 42 c-149 63 -232 115 -318 200 -90
89 -141 182 -158 291 -11 73 -4 148 14 148 6 0 40 -9 75 -20 154 -49 375 -63
541 -36 134 22 160 10 139 -66 -8 -32 -7 -44 6 -64 15 -24 57 -32 81 -16 38
25 51 142 22 198 -37 68 -122 92 -251 69 -229 -41 -534 8 -692 110 -183 118
-279 337 -230 524 35 134 130 281 254 391 46 40 71 70 71 84 0 12 -15 43 -34
69 -83 117 -69 287 34 417 35 45 109 94 180 121 l51 19 57 -43 c194 -149 446
-233 616 -206 70 12 96 31 96 70 0 47 -25 62 -89 54 -113 -15 -193 -4 -320 45
-148 58 -335 200 -382 292 -32 61 -30 143 5 202 59 100 163 152 364 180 57 8
110 20 119 27 11 9 13 24 9 53 -3 23 -9 78 -12 122 -6 74 -4 88 18 136 31 67
75 117 137 158 134 85 319 107 472 55z m1001 9 c127 -30 242 -114 288 -209 30
-62 36 -145 16 -223 -25 -97 -10 -113 117 -127 77 -8 194 -38 239 -61 49 -25
120 -96 139 -139 37 -81 19 -171 -50 -247 -66 -74 -163 -144 -276 -198 -151
-74 -251 -93 -387 -75 -53 7 -57 6 -73 -19 -25 -38 -13 -74 33 -93 53 -22 197
-19 296 6 106 28 253 99 353 172 l82 60 53 -23 c115 -48 171 -96 218 -188 63
-123 61 -242 -6 -341 -49 -73 -46 -95 24 -153 91 -76 159 -163 212 -271 58
-117 74 -193 59 -286 -47 -295 -297 -470 -694 -486 -96 -4 -155 -1 -225 11
-193 33 -288 -25 -277 -167 6 -72 28 -107 66 -107 47 0 64 29 56 94 -7 54 -6
56 19 66 19 7 53 6 119 -5 166 -27 346 -18 512 27 123 32 119 33 123 -37 13
-238 -175 -463 -483 -576 -33 -12 -66 -26 -72 -31 -16 -13 -114 -2 -210 23
-136 34 -248 107 -341 221 -64 80 -87 86 -148 37 -90 -72 -170 -87 -253 -45
-96 49 -142 124 -149 246 -15 269 131 443 423 505 85 18 166 19 290 3 164 -20
346 11 493 83 92 45 113 71 94 114 -19 41 -54 42 -132 1 -104 -55 -203 -78
-345 -79 -167 -2 -222 12 -274 69 -130 140 -222 363 -192 464 23 76 140 150
238 150 28 0 42 -9 74 -44 116 -127 286 -177 486 -142 171 30 242 71 214 125
-24 44 -35 45 -138 15 -109 -32 -245 -38 -320 -16 -56 17 -133 70 -161 112
-35 53 -65 64 -162 64 -107 -1 -179 -27 -250 -91 -48 -43 -53 -45 -95 -39 -90
12 -178 81 -206 162 -22 63 -17 180 11 237 49 102 159 193 286 238 32 11 65
25 72 31 22 19 14 66 -15 91 -72 60 -116 103 -129 128 -32 63 -4 129 64 150
34 10 52 5 233 -60 108 -39 204 -71 213 -71 22 0 56 36 56 58 0 10 -6 26 -12
35 -7 9 -105 50 -218 91 -113 40 -231 85 -263 100 -351 156 -410 451 -122 611
130 72 253 87 407 49z m-525 -655 c26 -20 62 -45 78 -55 17 -10 32 -19 34 -21
3 -2 -7 -16 -22 -31 -83 -87 -73 -236 22 -326 l30 -29 -57 -34 c-78 -47 -137
-97 -182 -154 l-38 -49 -37 50 c-37 51 -131 127 -198 161 l-38 20 40 47 c45
53 71 116 71 171 0 44 -30 112 -64 146 l-24 24 44 26 c56 33 157 126 184 171
l22 34 43 -58 c24 -31 65 -73 92 -93z m-82 -1208 c57 -54 110 -84 176 -101
l44 -11 2 -62 c3 -123 52 -256 145 -393 l56 -82 -72 -17 c-39 -9 -114 -37
-166 -62 -78 -37 -108 -59 -168 -120 l-74 -75 -16 24 c-63 95 -222 193 -374
230 l-86 21 39 49 c93 118 158 276 166 405 l6 82 56 16 c65 19 148 70 182 114
13 16 26 30 28 30 2 1 27 -21 56 -48z m-476 -1633 c57 -29 76 -33 146 -33 66
0 89 5 132 26 l53 26 -7 -26 c-14 -59 -77 -229 -105 -285 -75 -151 -197 -280
-323 -342 -67 -33 -88 -38 -164 -42 -74 -4 -95 -1 -139 18 -96 41 -172 152
-211 308 -12 44 -21 85 -21 91 0 6 15 11 33 11 56 0 199 39 274 76 77 37 169
106 222 167 18 20 35 37 38 37 3 0 35 -15 72 -32z m963 -13 c46 -52 139 -120
217 -160 58 -29 225 -75 272 -75 25 0 29 -4 29 -28 0 -87 -74 -254 -142 -323
-64 -64 -115 -82 -220 -78 -75 4 -94 9 -169 46 -186 92 -325 283 -406 557 -12
44 -21 81 -19 83 2 3 24 -6 48 -19 35 -18 59 -23 129 -23 77 0 91 3 145 32 32
17 63 32 68 32 5 1 26 -19 48 -44z"/>
</g>
</svg>
