<?xml version="1.0" standalone="no"?>
<!DOCTYPE svg PUBLIC "-//W3C//DTD SVG 20010904//EN"
 "http://www.w3.org/TR/2001/REC-SVG-20010904/DTD/svg10.dtd">
<svg version="1.0" xmlns="http://www.w3.org/2000/svg"
 width="512.000000pt" height="512.000000pt" viewBox="0 0 512.000000 512.000000"
 preserveAspectRatio="xMidYMid meet">

<g transform="translate(0.000000,512.000000) scale(0.100000,-0.100000)"
fill="#000000" stroke="none">
<path d="M2335 3679 c-363 -31 -778 -171 -1170 -394 -289 -164 -612 -398 -812
-589 -86 -81 -85 -94 10 -183 154 -143 404 -333 614 -465 675 -427 1313 -587
1921 -482 516 89 1066 361 1607 795 144 115 192 166 201 213 16 90 -14 134
-190 279 -493 402 -1056 689 -1546 787 -229 46 -418 57 -635 39z m321 -120
c375 -52 676 -314 791 -686 25 -81 27 -102 27 -258 1 -194 -13 -261 -84 -413
-247 -527 -905 -711 -1394 -391 -195 128 -336 328 -403 571 -26 92 -25 366 1
462 89 331 327 581 646 680 143 44 272 55 416 35z m-878 -172 c-217 -211 -328
-474 -328 -777 0 -299 107 -555 321 -769 82 -81 84 -81 -71 -24 -209 77 -498
229 -735 386 -193 128 -525 386 -525 407 0 10 182 162 295 246 296 222 625
412 915 527 96 38 180 71 199 76 2 0 -30 -32 -71 -72z m1572 16 c225 -81 591
-281 848 -463 l104 -73 -50 -51 c-74 -76 -87 -106 -87 -206 0 -100 13 -130 87
-206 l50 -52 -94 -65 c-304 -211 -606 -377 -858 -470 -156 -57 -154 -59 -59
39 198 205 294 425 306 700 7 155 -6 263 -47 386 -57 170 -128 286 -259 422
-95 97 -97 96 59 39z m1165 -705 c36 -29 67 -63 71 -76 8 -27 -9 -47 -112
-132 l-72 -60 -46 41 c-57 50 -76 85 -76 139 0 54 19 89 76 139 l46 41 25 -20
c14 -10 53 -43 88 -72z"/>
<path d="M2392 3166 c-280 -68 -472 -346 -432 -627 44 -307 305 -519 610 -496
138 11 258 67 358 167 107 109 163 246 163 400 0 105 -17 176 -69 274 -114
218 -387 340 -630 282z m249 -122 c207 -62 330 -223 330 -434 0 -211 -132
-381 -336 -435 -255 -66 -514 106 -555 368 -10 65 -5 167 9 167 3 0 28 -11 54
-25 27 -13 67 -27 90 -30 36 -6 46 -13 64 -45 48 -82 179 -106 258 -45 39 29
74 93 75 135 0 48 -21 101 -54 134 -31 30 -34 40 -39 107 -2 41 -8 84 -12 97
-7 20 -4 22 27 22 19 0 59 -7 89 -16z m-224 -88 c3 -25 0 -66 -7 -91 -15 -55
-2 -82 50 -99 45 -14 61 -53 36 -90 -11 -18 -25 -26 -46 -26 -38 0 -56 20 -64
69 -8 50 -32 65 -92 56 -47 -7 -117 17 -143 48 -12 15 -10 23 15 58 34 50 92
98 159 132 48 25 51 25 69 7 10 -10 20 -38 23 -64z"/>
</g>
</svg>
