<svg xmlns="http://www.w3.org/2000/svg" version="1.1" xmlns:xlink="http://www.w3.org/1999/xlink" xmlns:svgjs="http://svgjs.com/svgjs" width="512" height="512" x="0" y="0" viewBox="0 0 512 512" style="enable-background:new 0 0 512 512" xml:space="preserve" class=""><g><path d="M201.178 252.273c19.5 3.441 32.078-5.211 41.256-11.527a33.63 33.63 0 0 1 8.855-5.068h5.035a33.657 33.657 0 0 1 8.855 5.068c7.738 5.326 17.883 12.311 32.564 12.311a49.931 49.931 0 0 0 8.689-.783c28.689-5.06 37.684-41.184 34.729-64.004-2.805-21.664-17.516-37.807-30.494-52.047-2.318-2.545-4.62-5.068-6.83-7.596-5.604-6.402-8.057-49.06-7.115-84.91a6 6 0 1 0-11.996-.316c-.488 18.586-1.207 80.23 10.08 93.129 2.264 2.586 4.617 5.17 6.992 7.775 12.361 13.564 25.143 27.59 27.46 45.506 2.395 18.48-5.1 47.15-24.912 50.646-14.664 2.594-24.068-3.885-32.363-9.596a176.372 176.372 0 0 0-3.459-2.34 122.006 122.006 0 0 1 25.932-3.465 6 6 0 1 0-.004-12c-1.437 0-35.291.192-56.414 16.165-.799.536-1.6 1.083-2.41 1.64-8.295 5.711-17.695 12.189-32.365 9.596-17.926-3.164-25.623-26.033-25.189-45.943.441-20.28 13.57-34.672 27.469-49.908 2.449-2.686 4.893-5.367 7.264-8.076 11.412-13.041 7.104-75.234 5.51-93.984a6 6 0 1 0-11.957 1.015c3.059 35.996 2.94 78.754-2.584 85.066-2.316 2.648-4.705 5.268-7.1 7.891-14.776 16.203-30.057 32.958-30.596 57.735-.562 25.696 10.074 53.604 35.098 58.02zM242.432 276.262c-9.178-6.316-21.744-14.977-41.256-11.529-24.893 4.395-48.793 33.135-48.25 58.023a43.486 43.486 0 0 0 1.788 11.172c-.26.207-.542.39-.792.606-5.449 4.682-16.494 18.18-1.408 42.318 8.94 14.303 9.201 25.078 9.203 25.14v68.289a6 6 0 1 0 12 0v-68.288c0-.566-.125-14.059-11.027-31.5-5.133-8.213-9.463-19.54-.947-26.857 8.951-7.691 27.197-7.68 36.164.02 8.54 7.334 4.223 18.656-.904 26.863-10.885 17.43-11.01 30.91-11.01 31.564l1.01 68.2.001.089a6 6 0 0 0 5.998 5.91h.092a6 6 0 0 0 5.91-6.09l-1.012-68.154a36.883 36.883 0 0 1 1.518-8.22 190.26 190.26 0 0 1 4.263 4.677c5.502 6.287 5.629 43.762 2.592 74.877a6.001 6.001 0 0 0 5.979 6.584 6 6 0 0 0 5.963-5.416c.02-.194.04-.42.06-.624 1.644-17.075 5.742-70.402-5.562-83.323-2.475-2.829-5.314-5.839-8.337-8.987a73.985 73.985 0 0 1 2.714-4.732c15.068-24.127 4-37.635-1.457-42.322-10.018-8.604-26.736-10.74-40.072-6.409a30.175 30.175 0 0 1-.731-5.648c-.371-17.041 18.154-42.38 38.34-45.945 14.672-2.576 24.07 3.887 32.365 9.598 1.408.969 2.792 1.913 4.172 2.794 21.188 14.83 53.433 15.009 54.835 15.009a5.999 5.999 0 0 0 5.99-6.01 5.999 5.999 0 0 0-5.986-5.99 121.95 121.95 0 0 1-26.064-3.497 181.84 181.84 0 0 0 3.407-2.306c8.295-5.711 17.7-12.178 32.363-9.598 21.06 3.717 40.36 32.908 38.063 50.648-2.098 16.205-21.502 36.166-35.672 50.74-4.418 4.545-8.594 8.84-11.932 12.654-11.545 13.193-10.438 71.052-10.084 82.895l.004.144c.1 3.313 2.867 5.917 6.18 5.816a6 6 0 0 0 5.816-6.18c-.811-26.746.861-67.625 7.115-74.773 3.131-3.578 7.2-7.762 11.506-12.193 16.197-16.66 36.355-37.396 38.969-57.562 3.35-25.89-21.708-59.388-47.878-64.007-19.504-3.443-32.074 5.213-41.254 11.529a33.63 33.63 0 0 1-8.855 5.068h-5.035a63.126 63.126 0 0 1-8.855-5.067z" fill="#000000" data-original="#000000"></path></g></svg>