<?xml version="1.0" standalone="no"?>
<!DOCTYPE svg PUBLIC "-//W3C//DTD SVG 20010904//EN"
 "http://www.w3.org/TR/2001/REC-SVG-20010904/DTD/svg10.dtd">
<svg version="1.0" xmlns="http://www.w3.org/2000/svg"
 width="512.000000pt" height="512.000000pt" viewBox="0 0 512.000000 512.000000"
 preserveAspectRatio="xMidYMid meet">

<g transform="translate(0.000000,512.000000) scale(0.100000,-0.100000)"
fill="#000000" stroke="none">
<path d="M1625 4629 c-276 -36 -513 -238 -597 -509 -32 -104 -32 -334 1 -490
30 -144 98 -340 188 -544 41 -94 83 -190 94 -213 l18 -42 -57 29 c-112 57
-142 60 -535 60 l-358 0 3 -57 3 -58 370 -5 c354 -5 372 -6 425 -27 119 -49
217 -155 259 -281 31 -92 30 -299 -3 -465 -14 -67 -30 -166 -35 -219 -14 -124
-14 -369 -1 -478 34 -276 144 -549 287 -708 46 -52 63 -64 110 -78 138 -40
254 20 323 167 60 130 65 175 62 569 -4 595 29 796 153 929 55 58 110 81 199
81 160 0 252 -106 309 -355 19 -83 21 -127 23 -530 2 -259 7 -467 14 -505 33
-194 110 -319 222 -356 58 -19 138 -15 184 9 98 52 232 257 299 460 101 304
110 701 24 1065 -21 92 -25 247 -9 346 23 143 118 270 250 334 l75 37 373 3
372 3 0 59 0 60 -357 0 c-389 0 -414 -3 -525 -58 -32 -16 -58 -27 -58 -25 0 1
38 89 85 194 180 405 238 621 237 874 -1 261 -96 444 -315 607 -160 118 -395
155 -592 92 -27 -9 -131 -58 -230 -109 -220 -114 -285 -137 -385 -138 -102 0
-197 33 -382 134 -162 88 -254 124 -355 139 -76 11 -83 11 -168 -1z m154 -120
c95 -15 157 -40 309 -122 166 -90 249 -124 353 -143 146 -28 255 1 515 137
194 101 232 116 324 129 180 26 360 -45 501 -197 108 -117 152 -239 152 -418
-1 -234 -65 -457 -246 -855 -212 -469 -262 -699 -204 -946 46 -196 61 -325 61
-524 0 -103 -5 -218 -12 -260 -33 -198 -94 -374 -175 -501 -74 -116 -119 -159
-169 -159 l-27 0 19 32 c27 47 84 217 114 339 42 174 57 302 63 536 7 255 -4
393 -48 663 -23 140 -31 217 -31 315 0 151 5 181 79 495 62 264 71 330 53 413
-69 333 -454 495 -713 299 -80 -60 -109 -72 -176 -72 -73 0 -102 10 -166 60
-115 89 -231 116 -367 86 -217 -48 -369 -235 -369 -456 0 -59 13 -132 54 -311
31 -129 61 -261 68 -294 22 -101 17 -358 -10 -505 -89 -491 -76 -952 38 -1335
35 -118 87 -246 104 -258 7 -5 -2 -6 -23 -3 -45 8 -70 33 -141 140 -204 308
-254 776 -139 1290 34 152 36 206 15 332 -29 168 -91 347 -212 614 -178 393
-237 587 -250 821 -11 201 39 347 161 472 125 128 218 171 421 196 6 0 39 -4
74 -10z m399 -815 c28 -9 74 -36 104 -60 80 -67 143 -87 253 -82 99 5 145 22
222 85 86 71 182 88 292 54 137 -42 235 -163 247 -304 5 -53 -3 -100 -54 -322
-34 -143 -66 -291 -72 -330 -13 -75 -16 -319 -6 -376 6 -32 5 -32 -6 -9 -89
193 -142 264 -250 337 -103 68 -214 104 -348 110 -304 15 -549 -130 -659 -392
l-26 -61 0 181 c0 111 -5 203 -13 240 -8 33 -38 166 -68 295 -63 266 -68 332
-35 421 63 167 257 265 419 213z m534 -1043 c226 -72 354 -282 414 -681 21
-142 29 -519 15 -699 -13 -168 -35 -339 -58 -466 l-16 -90 -24 52 c-49 106
-54 164 -57 642 -3 409 -5 454 -24 541 -73 334 -210 470 -461 458 -236 -11
-364 -176 -422 -543 -9 -55 -13 -215 -14 -510 0 -382 -2 -437 -18 -494 -19
-68 -54 -148 -67 -156 -15 -9 -59 258 -82 490 -16 167 -15 571 1 700 28 223
85 427 146 530 74 123 192 210 328 240 88 21 253 13 339 -14z"/>
</g>
</svg>
