<svg xmlns="http://www.w3.org/2000/svg" width="270" height="250" fill="none">
  <mask id="a" width="270" height="250" x="0" y="0" maskUnits="userSpaceOnUse" style="mask-type:luminance">
    <path fill="#fff" d="M269.749 0H0v250h269.749V0Z"/>
  </mask>
  <g mask="url(#a)">
    <path fill="#BBD0DB" d="m258.224 121.765-16.103-75.6866c-.024-.1252-.063-.2504-.086-.3756-4.116-18.4736-22.355-30.226-40.915-26.2824l-2.159.4616-.517-1.2206c-1.533-3.6306-5.602-5.3989-9.272-4.1235-.156.0548-.305.1017-.461.1643-3.31 1.3928-5.078 4.906-4.398 8.294l-4.6.978-.548-1.291c-1.534-3.6306-5.602-5.3989-9.272-4.1235-.157.0547-.305.1017-.462.1643-3.333 1.4084-5.101 4.9607-4.381 8.3722l-4.828 1.025-.579-1.3693c-1.534-3.6306-5.602-5.3989-9.272-4.1235-.157.0548-.305.1017-.462.1643-3.356 1.4163-5.125 5.0155-4.366 8.4505l-4.82 1.025-.61-1.4397c-1.534-3.6306-5.602-5.3989-9.272-4.1235-.157.0547-.305.1017-.462.1643-3.38 1.424-5.148 5.0624-4.342 8.5208l-4.804 1.025-.642-1.5179c-1.534-3.6306-5.602-5.3989-9.272-4.1235-.157.0548-.305.1017-.462.1643-3.411 1.4397-5.172 5.1172-4.319 8.5991l-4.796 1.0172-.673-1.5962c-1.5338-3.6306-5.6025-5.3989-9.2722-4.1235-.1565.0548-.3052.1017-.4616.1643-3.435 1.4475-5.2033 5.172-4.3035 8.6773l-4.7808 1.0172-.7042-1.6666c-1.5336-3.6305-5.6023-5.3989-9.272-4.1235-.1565.0548-.3051.1017-.4616.1643-3.4584 1.4632-5.2268 5.2346-4.28 8.7556l-2.3865.5086C46.587 52.2832 34.7172 70.436 38.473 88.9878c.0234.1252.0469.2504.0704.3834l16.1028 75.6858c4.4912 21.103 23.2622 34.992 41.9314 31.017l135.9734-28.927c18.67-3.975 30.164-24.295 25.673-45.398v.016Z"/>
    <path fill="#2AA494" d="M195.354 15.3986 59.38 44.3258c-18.5597 3.9513-30.4294 22.1041-26.6736 40.656L236.268 41.6811c-4.116-18.4736-22.354-30.226-40.914-26.2825Z"/>
    <path fill="#fff" d="M84.3792 192.341c-16.4706 0-31.2354-13.2-35.1007-31.376L33.1836 85.2946 235.963 42.1582l16.095 75.6708c4.436 20.852-6.941 41-25.359 44.92L90.7248 191.676c-2.0891.446-4.2174.673-6.3456.673v-.008Z"/>
    <path fill="#BBD0DB" d="m235.65 42.6433 16.009 75.2717c4.389 20.633-6.847 40.562-25.046 44.435L90.6388 191.277c-2.0579.438-4.1627.657-6.2596.657-16.2828 0-30.8754-13.059-34.7016-31.055L33.6687 85.6076 235.65 42.6355m.618-.9624L32.7063 84.9738c.0235.1252.0469.2504.0704.3834l16.1028 75.6858c3.9748 18.67 19.1309 31.697 35.4997 31.697 2.1282 0 4.28-.219 6.4317-.68l135.9741-28.927c18.669-3.975 30.163-24.296 25.672-45.398l-16.103-75.6863c-.023-.1252-.062-.2504-.086-.3756Z"/>
    <path fill="#BBD0DB" d="M81.7973 81.1243c2.2612 0 4.2408 1.604 4.7103 3.8183l1.6431 7.715c.5556 2.6055-1.111 5.172-3.7166 5.7197l-7.7149 1.6427c-.3365.071-.6729.11-1.0094.11-2.2613 0-4.2409-1.6041-4.7103-3.8184l-1.6432-7.7149c-.266-1.2598-.0313-2.5508.6729-3.6306.7042-1.0798 1.784-1.8231 3.0437-2.0891l7.715-1.6432c.3364-.0704.6729-.1095 1.0094-.1095Zm0-.8138c-.3913 0-.7825.0392-1.1815.1252l-7.715 1.6432c-3.0437.6494-4.992 3.6384-4.3426 6.6899l1.6432 7.7149c.5633 2.6525 2.9029 4.4683 5.5084 4.4683.3912 0 .7824-.04 1.1815-.126l7.7149-1.6428c3.0438-.6494 4.9921-3.6384 4.3426-6.6899l-1.6431-7.715c-.5634-2.6525-2.9029-4.4678-5.5084-4.4678ZM105.693 76.0384c2.262 0 4.241 1.604 4.711 3.8183l1.643 7.7149c.555 2.6056-1.111 5.172-3.717 5.7197l-7.715 1.6432c-.336.0704-.6728.1095-1.0092.1095-2.2613 0-4.2409-1.604-4.7103-3.8183l-1.6432-7.715c-.266-1.2597-.0313-2.5507.6729-3.6305s1.784-1.8231 3.0437-2.0892l7.7151-1.6431c.336-.0704.673-.1095 1.009-.1095Zm0-.8138c-.391 0-.782.0391-1.181.1252l-7.7152 1.6431c-3.0437.6495-4.992 3.6384-4.3426 6.69l1.6432 7.7149c.5633 2.6525 2.9028 4.4678 5.5084 4.4678.3912 0 .7822-.0391 1.1812-.1252l7.715-1.6431c3.044-.6495 4.992-3.6384 4.343-6.69l-1.643-7.7149c-.564-2.6525-2.903-4.4678-5.509-4.4678ZM129.597 70.9605c2.261 0 4.241 1.604 4.71 3.8183l1.644 7.715c.266 1.2597.031 2.5507-.673 3.6305-.705 1.0798-1.784 1.8231-3.044 2.0892l-7.715 1.6431c-.336.0704-.673.1095-1.009.1095-2.262 0-4.241-1.604-4.711-3.8183l-1.643-7.7149c-.555-2.6056 1.111-5.172 3.717-5.7197l7.715-1.6432c.336-.0704.673-.1095 1.009-.1095Zm0-.8138c-.391 0-.782.0392-1.181.1252l-7.715 1.6432c-3.044.6494-4.992 3.6383-4.343 6.6899l1.643 7.7149c.564 2.6525 2.903 4.4678 5.509 4.4678.391 0 .782-.0391 1.181-.1252l7.715-1.6431c3.044-.6494 4.992-3.6384 4.343-6.6899l-1.644-7.715c-.563-2.6525-2.902-4.4678-5.508-4.4678ZM153.493 65.8745c2.261 0 4.241 1.6041 4.71 3.8184l1.644 7.7149c.266 1.2598.031 2.5508-.673 3.6306-.705 1.0798-1.784 1.8231-3.044 2.0891l-7.715 1.6432c-.336.0704-.673.1095-1.009.1095-2.262 0-4.241-1.604-4.711-3.8183l-1.643-7.715c-.266-1.2597-.031-2.5508.673-3.6305.704-1.0798 1.784-1.8231 3.044-2.0892l7.715-1.6431c.336-.0704.673-.1096 1.009-.1096Zm0-.8137c-.391 0-.782.0391-1.181.1252l-7.715 1.6431c-3.044.6495-4.992 3.6384-4.343 6.69l1.643 7.7149c.564 2.6525 2.903 4.4678 5.509 4.4678.391 0 .782-.0391 1.181-.1252l7.715-1.6432c3.044-.6494 4.992-3.6383 4.343-6.6899l-1.644-7.7149c-.563-2.6525-2.902-4.4678-5.508-4.4678ZM177.389 60.7886c2.261 0 4.241 1.604 4.71 3.8183l1.643 7.715c.266 1.2597.032 2.5508-.673 3.6305-.704 1.0798-1.784 1.8232-3.043 2.0892l-7.715 1.6431c-.337.0704-.673.1096-1.01.1096-2.261 0-4.241-1.6041-4.71-3.8184l-1.643-7.7149c-.266-1.2598-.031-2.5508.673-3.6306.704-1.0798 1.784-1.8231 3.044-2.0891l7.714-1.6432c.337-.0704.673-.1095 1.01-.1095Zm0-.8137c-.391 0-.783.0391-1.182.1251l-7.715 1.6432c-3.043.6494-4.992 3.6384-4.342 6.6899l1.643 7.715c.563 2.6525 2.903 4.4677 5.508 4.4677.392 0 .783-.0391 1.182-.1252l7.715-1.6431c3.044-.6494 4.992-3.6384 4.342-6.6899l-1.643-7.715c-.563-2.6525-2.903-4.4677-5.508-4.4677ZM201.293 55.7027c2.261 0 4.24 1.604 4.71 3.8183l1.643 7.7149c.556 2.6056-1.111 5.172-3.717 5.7198l-7.714 1.6431c-.337.0704-.673.1095-1.01.1095-2.261 0-4.241-1.604-4.71-3.8183l-1.643-7.7149c-.266-1.2598-.032-2.5508.673-3.6306.704-1.0798 1.784-1.8231 3.043-2.0892l7.715-1.6431c.337-.0704.673-.1095 1.01-.1095Zm0-.8138c-.392 0-.783.0391-1.182.1252l-7.715 1.6432c-3.044.6494-4.992 3.6383-4.342 6.6899l1.643 7.7149c.563 2.6525 2.903 4.4678 5.508 4.4678.391 0 .783-.0391 1.182-.1252l7.715-1.6431c3.043-.6495 4.992-3.6384 4.342-6.69l-1.643-7.7149c-.563-2.6525-2.903-4.4678-5.508-4.4678ZM225.189 50.6245c2.261 0 4.24 1.6041 4.71 3.8184l1.643 7.7149c.266 1.2598.031 2.5508-.673 3.6306-.704 1.0798-1.784 1.8231-3.044 2.0891l-7.714 1.6431c-.337.0705-.673.1096-1.01.1096-2.261 0-4.241-1.604-4.71-3.8183l-1.643-7.715c-.556-2.6055 1.111-5.172 3.716-5.7197l7.715-1.6431c.337-.0704.673-.1096 1.01-.1096Zm0-.8137c-.392 0-.783.0391-1.182.1252l-7.715 1.6431c-3.044.6495-4.992 3.6384-4.342 6.69l1.643 7.7149c.563 2.6525 2.903 4.4678 5.508 4.4678.391 0 .783-.0392 1.182-.1252l7.715-1.6432c3.043-.6494 4.992-3.6384 4.342-6.6899l-1.643-7.7149c-.563-2.6525-2.903-4.4678-5.508-4.4678ZM57.9013 86.2102c2.2612 0 4.2408 1.604 4.7103 3.8184l1.6431 7.7149c.2661 1.2598.0313 2.5505-.6729 3.6305s-1.784 1.823-3.0437 2.089l-7.7149 1.643c-.3365.071-.6729.11-1.0094.11-2.2613 0-4.2409-1.604-4.7103-3.818l-1.6432-7.7154c-.5555-2.6055 1.1111-5.172 3.7167-5.7197l7.7149-1.6431c.3364-.0705.6729-.1096 1.0094-.1096Zm0-.8137c-.3913 0-.7825.0391-1.1815.1252l-7.715 1.6431c-3.0437.6494-4.992 3.6384-4.3426 6.6899l1.6432 7.7153c.5633 2.652 2.9029 4.467 5.5084 4.467.3912 0 .7824-.039 1.1815-.125l7.7149-1.643c3.0438-.649 4.9921-3.638 4.3426-6.6898l-1.6431-7.7149c-.5634-2.6525-2.9029-4.4678-5.5084-4.4678ZM86.797 104.621c2.2613 0 4.2408 1.604 4.7103 3.818l1.6432 7.715c.266 1.26.0313 2.551-.6729 3.631-.7042 1.08-1.784 1.823-3.0438 2.089l-7.7149 1.643c-.3364.071-.6729.11-1.0094.11-2.2612 0-4.2408-1.604-4.7103-3.819l-1.6431-7.715c-.2661-1.259-.0313-2.55.6729-3.63s1.784-1.823 3.0437-2.089l7.7149-1.643c.3365-.071.6729-.11 1.0094-.11Zm0-.814c-.3912 0-.7825.039-1.1815.126l-7.7149 1.643c-3.0438.649-4.9921 3.638-4.3426 6.69l1.6431 7.715c.5634 2.652 2.9029 4.467 5.5084 4.467.3913 0 .7825-.039 1.1815-.125l7.715-1.643c3.0437-.649 4.992-3.638 4.3426-6.69l-1.6432-7.715c-.5633-2.652-2.9029-4.468-5.5084-4.468ZM110.693 99.5352c2.261 0 4.241 1.6038 4.71 3.8188l1.643 7.714c.267 1.26.032 2.551-.672 3.631-.705 1.08-1.784 1.823-3.044 2.089l-7.715 1.643c-.337.071-.673.11-1.009.11-2.262 0-4.241-1.604-4.7108-3.818l-1.6431-7.715c-.266-1.26-.0313-2.551.6729-3.631.7042-1.08 1.784-1.823 3.044-2.089l7.715-1.6433c.336-.0704.673-.1095 1.009-.1095Zm0-.8138c-.391 0-.782.0392-1.181.1252l-7.715 1.6434c-3.0441.649-4.9925 3.638-4.343 6.69l1.6431 7.715c.5634 2.652 2.9029 4.467 5.5089 4.467.391 0 .782-.039 1.181-.125l7.715-1.643c3.044-.649 4.992-3.638 4.343-6.69l-1.644-7.715c-.563-2.652-2.902-4.4676-5.508-4.4676ZM134.589 94.4492c2.261 0 4.241 1.6041 4.71 3.8184l1.643 7.7154c.556 2.605-1.111 5.172-3.716 5.719l-7.715 1.643c-.337.071-.673.11-1.009.11-2.262 0-4.241-1.604-4.711-3.818l-1.643-7.715c-.555-2.6059 1.111-5.1724 3.717-5.7201l7.715-1.6431c.336-.0704.673-.1096 1.009-.1096Zm0-.8137c-.391 0-.782.0391-1.181.1252l-7.715 1.6431c-3.044.6495-4.992 3.6384-4.343 6.6902l1.643 7.715c.563 2.652 2.903 4.467 5.509 4.467.391 0 .782-.039 1.181-.125l7.715-1.643c3.044-.649 4.992-3.638 4.343-6.69l-1.644-7.7147c-.563-2.6525-2.902-4.4678-5.508-4.4678ZM158.493 89.3635c2.261 0 4.241 1.6041 4.71 3.8184l1.643 7.7151c.266 1.26.032 2.551-.673 3.63-.704 1.08-1.784 1.823-3.043 2.09l-7.715 1.643c-.337.07-.673.109-1.01.109-2.261 0-4.241-1.604-4.71-3.818l-1.643-7.7151c-.266-1.2597-.031-2.5508.673-3.6305.704-1.0798 1.784-1.8231 3.043-2.0892l7.715-1.6431c.337-.0704.673-.1096 1.01-.1096Zm0-.8137c-.391 0-.783.0391-1.182.1252l-7.715 1.6431c-3.043.6495-4.992 3.6384-4.342 6.69l1.643 7.7149c.563 2.653 2.903 4.468 5.508 4.468.392 0 .783-.039 1.182-.125l7.715-1.644c3.044-.649 4.992-3.638 4.342-6.689l-1.643-7.7154c-.563-2.6525-2.903-4.4678-5.508-4.4678ZM182.389 84.2854c2.261 0 4.24 1.604 4.71 3.8184l1.643 7.7149c.556 2.6056-1.111 5.1723-3.717 5.7193l-7.715 1.644c-.336.07-.672.109-1.009.109-2.261 0-4.241-1.604-4.71-3.8182l-1.643-7.715c-.266-1.2597-.032-2.5508.673-3.6305.704-1.0798 1.784-1.8232 3.043-2.0892l7.715-1.6431c.337-.0704.673-.1096 1.01-.1096Zm0-.8137c-.392 0-.783.0391-1.182.1252l-7.715 1.6431c-3.044.6495-4.992 3.6384-4.342 6.69l1.643 7.7149c.563 2.6521 2.903 4.4681 5.508 4.4681.391 0 .783-.039 1.182-.126l7.715-1.643c3.043-.649 4.992-3.638 4.342-6.6896l-1.643-7.7149c-.563-2.6525-2.903-4.4678-5.508-4.4678Z"/>
    <path fill="#7A6551" d="m205.111 78.5109-7.715 1.6431c-3.044.6495-4.992 3.6384-4.343 6.69l1.644 7.7149c.211.9859.665 1.8544 1.291 2.5586l10.124-18.7083c-.328.0078-.665.0469-1.001.1174v-.0157Z"/>
    <path fill="#BBD0DB" d="M206.59 79.2151c2.128.1331 3.959 1.6979 4.405 3.8027l1.643 7.715c.556 2.6055-1.111 5.172-3.717 5.7197l-7.714 1.6431c-.329.0704-.673.1096-1.01.1096-1.189 0-2.339-.446-3.224-1.2363l9.609-17.7459m-.305-.8216h-.172L195.98 97.1097c1.056 1.1894 2.582 1.9092 4.225 1.9092.391 0 .782-.0391 1.174-.1252l7.715-1.6431c3.043-.6495 4.992-3.6384 4.342-6.69l-1.643-7.7149c-.563-2.6525-2.903-4.46-5.508-4.46l-.008.0157ZM230.188 74.1136c2.262 0 4.241 1.604 4.711 3.8183l1.643 7.7149c.266 1.2598.031 2.5508-.673 3.6306-.704 1.0798-1.784 1.8231-3.044 2.0891l-7.715 1.6432c-.336.0704-.673.1095-1.009.1095-2.261 0-4.241-1.604-4.71-3.8183l-1.644-7.715c-.266-1.2597-.031-2.5507.673-3.6305.705-1.0798 1.784-1.8231 3.044-2.0892l7.715-1.6431c.336-.0704.673-.1095 1.009-.1095Zm0-.8138c-.391 0-.782.0391-1.181.1252l-7.715 1.6431c-3.044.6495-4.992 3.6384-4.343 6.69l1.643 7.7149c.564 2.6525 2.903 4.4678 5.509 4.4678.391 0 .782-.0391 1.181-.1252l7.715-1.6431c3.044-.6495 4.992-3.6384 4.343-6.69l-1.643-7.7149c-.564-2.6525-2.903-4.4678-5.509-4.4678ZM62.8932 109.699c2.2613 0 4.2409 1.604 4.7103 3.819l1.6432 7.715c.5555 2.605-1.1111 5.172-3.7167 5.719l-7.7149 1.643c-.3365.071-.6729.11-1.0093.11-2.2613 0-4.2409-1.604-4.7104-3.818l-1.6431-7.715c-.5556-2.606 1.111-5.172 3.7166-5.72l7.7149-1.643c.3365-.071.673-.11 1.0094-.11Zm0-.814c-.3912 0-.7825.04-1.1815.126l-7.7149 1.643c-3.0438.649-4.9921 3.638-4.3426 6.69l1.6431 7.715c.5634 2.652 2.9029 4.467 5.5085 4.467.3912 0 .7824-.039 1.1814-.125l7.715-1.643c3.0437-.649 4.992-3.638 4.3426-6.69l-1.6432-7.715c-.5633-2.652-2.9028-4.468-5.5084-4.468ZM90.9205 128.298c2.2613 0 4.2409 1.604 4.7104 3.818l1.6431 7.715c.5556 2.606-1.1111 5.172-3.7166 5.72l-7.715 1.643c-.3364.071-.6729.11-1.0093.11-2.2613 0-4.2409-1.604-4.7104-3.819l-1.6431-7.715c-.5555-2.605 1.1111-5.171 3.7166-5.719l7.715-1.643c.3364-.071.6729-.11 1.0093-.11Zm0-.814c-.3912 0-.7824.04-1.1815.126l-7.7149 1.643c-3.0437.649-4.992 3.638-4.3426 6.69l1.6432 7.715c.5633 2.652 2.9028 4.467 5.5084 4.467.3912 0 .7824-.039 1.1815-.125l7.7149-1.643c3.0438-.649 4.992-3.638 4.3426-6.69l-1.6431-7.715c-.5634-2.652-2.9029-4.468-5.5085-4.468ZM114.817 123.212c2.261 0 4.24 1.604 4.71 3.819l1.643 7.714c.266 1.26.031 2.551-.673 3.631-.704 1.08-1.784 1.823-3.044 2.089l-7.715 1.643c-.336.071-.672.11-1.009.11-2.261 0-4.241-1.604-4.71-3.819l-1.643-7.714c-.266-1.26-.032-2.551.672-3.631.705-1.08 1.784-1.823 3.044-2.089l7.715-1.643c.337-.071.673-.11 1.01-.11Zm0-.814c-.392 0-.783.04-1.182.126l-7.715 1.643c-3.044.649-4.992 3.638-4.342 6.69l1.643 7.715c.563 2.652 2.903 4.467 5.508 4.467.391 0 .783-.039 1.182-.125l7.715-1.643c3.043-.649 4.992-3.638 4.342-6.69l-1.643-7.715c-.563-2.652-2.903-4.468-5.508-4.468ZM138.713 118.134c2.261 0 4.24 1.604 4.71 3.819l1.643 7.715c.266 1.259.031 2.55-.673 3.63-.704 1.08-1.784 1.823-3.044 2.089l-7.715 1.643c-.336.071-.672.11-1.009.11-2.261 0-4.241-1.604-4.71-3.818l-1.643-7.715c-.266-1.26-.032-2.551.673-3.631.704-1.08 1.784-1.823 3.043-2.089l7.715-1.643c.337-.071.673-.11 1.01-.11Zm0-.813c-.392 0-.783.039-1.182.125l-7.715 1.643c-3.044.649-4.992 3.638-4.342 6.69l1.643 7.715c.563 2.652 2.903 4.468 5.508 4.468.391 0 .783-.04 1.182-.126l7.715-1.643c3.043-.649 4.992-3.638 4.342-6.69l-1.643-7.715c-.563-2.652-2.903-4.467-5.508-4.467ZM162.616 113.048c2.261 0 4.241 1.604 4.71 3.819l1.644 7.715c.266 1.259.031 2.55-.673 3.63-.705 1.08-1.784 1.823-3.044 2.089l-7.715 1.643c-.336.071-.673.11-1.009.11-2.262 0-4.241-1.604-4.711-3.818l-1.643-7.715c-.555-2.606 1.111-5.172 3.717-5.72l7.715-1.643c.336-.07.673-.11 1.009-.11Zm0-.813c-.391 0-.782.039-1.181.125l-7.715 1.643c-3.044.649-4.992 3.638-4.343 6.69l1.643 7.715c.564 2.652 2.903 4.468 5.509 4.468.391 0 .782-.04 1.181-.126l7.715-1.643c3.044-.649 4.992-3.638 4.343-6.69l-1.643-7.715c-.564-2.652-2.903-4.467-5.509-4.467Z"/>
    <path fill="url(#b)" d="m185.343 107.269-7.722 1.643c-3.043.647-4.985 3.639-4.338 6.683l1.643 7.722c.648 3.043 3.639 4.985 6.683 4.338l7.722-1.643c3.043-.648 4.985-3.639 4.338-6.683l-1.643-7.722c-.647-3.043-3.639-4.985-6.683-4.338Z"/>
    <path fill="#BBD0DB" d="M210.416 102.876c2.261 0 4.241 1.605 4.71 3.819l1.643 7.715c.266 1.26.032 2.551-.673 3.63-.704 1.08-1.784 1.823-3.043 2.089l-7.715 1.644c-.337.07-.673.109-1.01.109-2.261 0-4.24-1.604-4.71-3.818l-1.643-7.715c-.266-1.26-.031-2.551.673-3.631.704-1.079 1.784-1.823 3.044-2.089l7.715-1.643c.336-.07.672-.11 1.009-.11Zm0-.813c-.391 0-.783.039-1.182.125l-7.715 1.643c-3.043.65-4.992 3.638-4.342 6.69l1.643 7.715c.563 2.652 2.903 4.468 5.508 4.468.392 0 .783-.039 1.182-.125l7.715-1.644c3.044-.649 4.992-3.638 4.342-6.69l-1.643-7.714c-.563-2.653-2.903-4.468-5.508-4.468ZM234.312 97.7984c2.261 0 4.241 1.604 4.71 3.8186l1.643 7.715c.266 1.259.032 2.55-.673 3.63-.704 1.08-1.783 1.823-3.043 2.089l-7.715 1.643c-.337.071-.673.11-1.01.11-2.261 0-4.24-1.604-4.71-3.818l-1.643-7.715c-.556-2.606 1.111-5.172 3.717-5.72l7.715-1.6431c.336-.0704.672-.1095 1.009-.1095Zm0-.8138c-.391 0-.783.0391-1.182.1252l-7.715 1.6431c-3.043.6495-4.992 3.6381-4.342 6.6901l1.643 7.715c.563 2.652 2.903 4.468 5.508 4.468.392 0 .783-.04 1.182-.126l7.715-1.643c3.044-.649 4.992-3.638 4.342-6.69l-1.643-7.715c-.563-2.6521-2.903-4.4674-5.508-4.4674ZM67.0167 133.384c2.2613 0 4.2409 1.604 4.7104 3.818l1.6431 7.715c.266 1.26.0313 2.551-.6729 3.631-.7042 1.08-1.784 1.823-3.0437 2.089l-7.7149 1.643c-.3365.071-.673.11-1.0094.11-2.2613 0-4.2409-1.604-4.7103-3.819l-1.6432-7.715c-.266-1.259-.0313-2.55.6729-3.63s1.784-1.823 3.0437-2.089l7.715-1.643c.3364-.071.6729-.11 1.0093-.11Zm0-.814c-.3912 0-.7824.039-1.1815.126l-7.7149 1.643c-3.0437.649-4.992 3.638-4.3426 6.69l1.6432 7.715c.5633 2.652 2.9028 4.467 5.5084 4.467.3912 0 .7824-.039 1.1815-.125l7.7149-1.643c3.0437-.649 4.9921-3.638 4.3426-6.69l-1.6431-7.715c-.5634-2.652-2.9029-4.468-5.5085-4.468ZM95.9205 151.795c2.2613 0 4.2405 1.604 4.7105 3.818l1.643 7.715c.556 2.606-1.111 5.172-3.7166 5.72l-7.7149 1.643c-.3365.07-.6729.11-1.0094.11-2.2613 0-4.2409-1.604-4.7103-3.819l-1.6432-7.715c-.266-1.259-.0313-2.55.6729-3.63s1.784-1.823 3.0438-2.089l7.7149-1.644c.3364-.07.6729-.109 1.0093-.109Zm0-.814c-.3912 0-.7824.039-1.1815.125l-7.7149 1.644c-3.0437.649-4.992 3.638-4.3426 6.689l1.6432 7.715c.5633 2.653 2.9028 4.468 5.5084 4.468.3912 0 .7825-.039 1.1815-.125l7.7149-1.643c3.0435-.65 4.9925-3.639 4.3425-6.69l-1.643-7.715c-.563-2.653-2.9029-4.468-5.5085-4.468ZM119.817 146.709c2.261 0 4.24 1.604 4.71 3.818l1.643 7.715c.266 1.26.031 2.551-.673 3.631-.704 1.08-1.784 1.823-3.044 2.089l-7.715 1.643c-.336.071-.672.11-1.009.11-2.261 0-4.241-1.604-4.71-3.819l-1.643-7.715c-.266-1.259-.032-2.55.673-3.63.704-1.08 1.783-1.823 3.043-2.089l7.715-1.643c.337-.071.673-.11 1.01-.11Zm0-.814c-.392 0-.783.039-1.182.125l-7.715 1.644c-3.044.649-4.992 3.638-4.342 6.69l1.643 7.714c.563 2.653 2.903 4.468 5.508 4.468.391 0 .783-.039 1.182-.125l7.715-1.643c3.043-.65 4.992-3.638 4.342-6.69l-1.643-7.715c-.563-2.652-2.903-4.468-5.508-4.468ZM143.713 141.623c2.261 0 4.24 1.604 4.71 3.819l1.643 7.715c.266 1.259.031 2.55-.673 3.63-.704 1.08-1.784 1.823-3.044 2.089l-7.715 1.643c-.336.071-.672.11-1.009.11-2.261 0-4.241-1.604-4.71-3.818l-1.643-7.715c-.266-1.26-.032-2.551.673-3.631.704-1.08 1.783-1.823 3.043-2.089l7.715-1.643c.337-.071.673-.11 1.01-.11Zm0-.813c-.392 0-.783.039-1.182.125l-7.715 1.643c-3.044.649-4.992 3.638-4.342 6.69l1.643 7.715c.563 2.652 2.903 4.468 5.508 4.468.391 0 .783-.04 1.182-.126l7.715-1.643c3.043-.649 4.992-3.638 4.342-6.69l-1.643-7.715c-.563-2.652-2.903-4.467-5.508-4.467Z"/>
    <path fill="url(#c)" d="m166.438 135.843-7.707 1.639c-3.047.648-4.992 3.644-4.344 6.692l1.64 7.707c.648 3.047 3.644 4.992 6.692 4.344l7.706-1.64c3.048-.648 4.993-3.644 4.345-6.692l-1.64-7.706c-.648-3.048-3.644-4.993-6.692-4.344Z"/>
    <path fill="url(#d)" d="m190.335 130.77-7.707 1.64c-3.047.648-4.992 3.644-4.344 6.691l1.64 7.707c.648 3.048 3.644 4.993 6.691 4.344l7.707-1.639c3.048-.649 4.993-3.645 4.344-6.692l-1.639-7.707c-.649-3.047-3.645-4.992-6.692-4.344Z"/>
    <path fill="url(#e)" d="m214.23 125.682-7.707 1.64c-3.047.648-4.992 3.644-4.344 6.692l1.64 7.706c.648 3.048 3.644 4.993 6.692 4.344l7.706-1.639c3.048-.648 4.993-3.644 4.345-6.692l-1.64-7.707c-.648-3.047-3.644-4.992-6.692-4.344Z"/>
    <path fill="#BBD0DB" d="M239.312 121.287c2.261 0 4.241 1.604 4.71 3.819l1.643 7.715c.266 1.259.032 2.55-.673 3.63-.704 1.08-1.784 1.823-3.043 2.089l-7.715 1.644c-.337.07-.673.109-1.01.109-2.261 0-4.24-1.604-4.71-3.818l-1.643-7.715c-.266-1.26-.031-2.551.673-3.631.704-1.08 1.784-1.823 3.044-2.089l7.715-1.643c.336-.07.672-.11 1.009-.11Zm0-.813c-.391 0-.783.039-1.182.125l-7.715 1.643c-3.043.649-4.992 3.638-4.342 6.69l1.643 7.715c.563 2.652 2.903 4.468 5.508 4.468.392 0 .783-.04 1.182-.126l7.715-1.643c3.044-.649 4.992-3.638 4.342-6.69l-1.643-7.715c-.563-2.652-2.903-4.467-5.508-4.467ZM72.0167 156.881c2.2613 0 4.2409 1.604 4.7104 3.818l1.6431 7.715c.266 1.26.0313 2.551-.6729 3.631-.7042 1.079-1.784 1.823-3.0437 2.089l-7.715 1.643c-.3364.07-.6729.11-1.0093.11-2.2613 0-4.2409-1.604-4.7104-3.819l-1.6431-7.715c-.5555-2.605 1.1111-5.172 3.7166-5.719l7.715-1.644c.3364-.07.6729-.109 1.0093-.109Zm0-.814c-.3912 0-.7824.039-1.1815.125l-7.7149 1.643c-3.0437.65-4.992 3.639-4.3426 6.69l1.6432 7.715c.5633 2.653 2.9028 4.468 5.5084 4.468.3912 0 .7824-.039 1.1815-.125l7.7149-1.643c3.0437-.65 4.992-3.639 4.3426-6.69l-1.6431-7.715c-.5634-2.653-2.9029-4.468-5.5085-4.468Z"/>
    <path fill="#A4D4CE" d="M269.749 43.8093 213.64 74.5048l-.157.266 7.95 14.2327h.305l48.011-26.1729"/>
    <path fill="#F8D1C6" d="m210.111 88.8705 11.322.133-7.95-14.2327-5.829 9.7101 2.457 4.3896Z"/>
    <path fill="#7A6551" d="m205.064 88.8079 5.047.0626-2.457-4.3895-2.59 4.3269Z"/>
    <path fill="#85A8A8" d="M75.7801 39.0208c-1.5336-3.6306-5.6024-5.3989-9.272-4.1235 2.1047.5868 3.9357 2.0891 4.8511 4.2643l5.1094 12.1201c1.5962 3.7793-.18 8.1375-3.9592 9.7337-.1486.0626-.3051.1174-.4616.1643 1.5571.4382 3.2706.3678 4.8825-.3051 3.7792-1.5962 5.5554-5.9545 3.9592-9.7337l-5.1173-12.1201h.0079ZM95.302 34.9519c-1.5336-3.6305-5.6023-5.3989-9.272-4.1235 2.1048.5869 3.9358 2.0892 4.8512 4.2644l5.1094 12.1201c1.5962 3.7792-.18 8.1374-3.9592 9.7336-.1486.0626-.3051.1174-.4616.1644 1.557.4381 3.2706.3677 4.8824-.3052 3.7788-1.5962 5.5558-5.9544 3.9588-9.7337l-5.1168-12.1201h.0078ZM114.824 30.8755c-1.533-3.6306-5.602-5.3989-9.272-4.1235 2.105.5868 3.936 2.0891 4.851 4.2643l5.11 12.1202c1.596 3.7792-.18 8.1374-3.959 9.7336-.149.0626-.306.1174-.462.1643 1.557.4382 3.271.3678 4.882-.3051 3.78-1.5962 5.556-5.9545 3.96-9.7337l-5.11-12.1201ZM134.346 26.8066c-1.533-3.6305-5.602-5.3988-9.272-4.1234 2.105.5868 3.936 2.0891 4.851 4.2643l5.118 12.1201c1.596 3.7792-.18 8.1375-3.96 9.7337-.148.0626-.305.1173-.461.1643 1.557.4382 3.27.3677 4.882-.3052 3.779-1.5962 5.556-5.9544 3.959-9.7336l-5.109-12.1202h-.008ZM153.868 22.7381c-1.533-3.6306-5.602-5.3989-9.272-4.1236 2.105.5869 3.936 2.0892 4.852 4.2644l5.109 12.1201c1.596 3.7792-.18 8.1375-3.959 9.7337-.149.0626-.305.1173-.462.1643 1.557.4382 3.271.3677 4.883-.3052 3.779-1.5962 5.555-5.9544 3.959-9.7336l-5.11-12.1201ZM173.39 18.6614c-1.533-3.6306-5.602-5.3989-9.272-4.1235 2.105.5868 3.936 2.0891 4.852 4.2643l5.117 12.1202c1.596 3.7792-.18 8.1374-3.959 9.7336-.149.0626-.306.1174-.462.1643 1.557.4382 3.271.3678 4.882-.3051 3.78-1.5962 5.556-5.9545 3.96-9.7337l-5.118-12.1201ZM197.787 26.7598l-5.109-12.1201c-1.534-3.6306-5.603-5.39893-9.272-4.1235 2.105.5868 3.935 2.0891 4.851 4.2643l5.109 12.1201c1.597 3.7793-.18 8.1375-3.959 9.7337-.149.0626-.305.1173-.462.1643 1.558.4382 3.271.3677 4.883-.3052 3.779-1.5962 5.555-5.9544 3.959-9.7336Z"/>
    <path fill="#BBD0DB" d="M76.4764 51.2817 71.367 39.1616c-.9154-2.1752-2.7463-3.6775-4.8511-4.2644-.1565.0548-.3052.1017-.4617.1643-3.7792 1.5962-5.5554 5.9545-3.9592 9.7337l5.1172 12.1201c.9155 2.1752 2.7464 3.6775 4.8512 4.2644.1565-.0548.3052-.1018.4617-.1644 3.7792-1.5962 5.5553-5.9544 3.9592-9.7336h-.0079ZM92.0395 56.9387c3.7792-1.5962 5.5553-5.9545 3.9591-9.7337l-5.1093-12.1201c-.9155-2.1752-2.7465-3.6775-4.8512-4.2643-.1565.0547-.3052.1017-.4617.1643-3.7792 1.5962-5.5554 5.9544-3.9592 9.7336l5.1094 12.1201c.9155 2.1753 2.7464 3.6775 4.8512 4.2644.1565-.0548.3052-.1017.4617-.1643ZM115.521 43.1364l-5.11-12.1201c-.915-2.1752-2.746-3.6775-4.851-4.2643-.156.0547-.305.1017-.462.1643-3.779 1.5962-5.555 5.9544-3.959 9.7336l5.11 12.1201c.915 2.1752 2.746 3.6775 4.851 4.2644.156-.0548.305-.1017.461-.1643 3.78-1.5962 5.556-5.9545 3.96-9.7337ZM131.083 48.8012c3.78-1.5962 5.556-5.9544 3.96-9.7336l-5.118-12.1202c-.915-2.1752-2.746-3.6775-4.851-4.2643-.156.0548-.305.1017-.461.1643-3.78 1.5962-5.556 5.9544-3.96 9.7337l5.11 12.1201c.915 2.1752 2.746 3.6775 4.851 4.2643.156-.0547.305-.1017.462-.1643h.007ZM154.565 34.999l-5.11-12.1201c-.915-2.1753-2.746-3.6776-4.851-4.2644-.156.0548-.305.1017-.461.1643-3.78 1.5962-5.556 5.9545-3.96 9.7337l5.118 12.1201c.915 2.1752 2.746 3.6775 4.851 4.2643.156-.0547.305-.1017.461-.1643 3.78-1.5962 5.556-5.9544 3.96-9.7336h-.008ZM174.087 30.9223l-5.117-12.1201c-.916-2.1752-2.747-3.6775-4.852-4.2644-.156.0548-.305.1018-.461.1643-3.779 1.5962-5.556 5.9545-3.959 9.7337l5.117 12.1201c.915 2.1752 2.746 3.6775 4.851 4.2644.156-.0548.305-.1018.462-.1643 3.779-1.5962 5.555-5.9545 3.959-9.7337ZM193.374 26.9006l-5.109-12.1201c-.916-2.1753-2.747-3.6776-4.851-4.2644-.157.0548-.306.1017-.462.1643-3.779 1.5962-5.555 5.9545-3.959 9.7337l5.109 12.1201c.916 2.1752 2.746 3.6775 4.851 4.2643.157-.0547.305-.1017.462-.1643 3.779-1.5962 5.555-5.9544 3.959-9.7336Z"/>
    <path fill="#fff" d="M199.72 202.709c25.453 0 46.086-20.634 46.086-46.086 0-25.453-20.633-46.087-46.086-46.087s-46.086 20.634-46.086 46.087c0 25.452 20.633 46.086 46.086 46.086Z"/>
    <path fill="#2AA494" d="M249.954 177.482c13.305-25.865 3.122-57.619-22.744-70.924-25.865-13.3045-57.619-3.122-70.924 22.744-13.304 25.866-3.122 57.62 22.744 70.924 25.866 13.305 57.62 3.122 70.924-22.744Z"/>
    <path fill="#fff" d="M230.168 186.549c18.297-14.939 21.019-41.881 6.081-60.178-14.938-18.296-41.881-21.019-60.177-6.08-18.297 14.938-21.02 41.88-6.081 60.177 14.938 18.297 41.881 21.019 60.177 6.081Z"/>
    <path fill="#A4D4CE" d="M202.811 152.57c-.83-.071-1.448-.806-1.378-1.636l2.144-24.795c.071-.83.806-1.448 1.636-1.377.829.07 1.447.805 1.377 1.635l-2.144 24.796c-.071.829-.806 1.447-1.635 1.377ZM221.221 167.194c-.234-.024-.469-.094-.68-.235l-15.43-9.851c-.704-.446-.908-1.385-.462-2.089s1.385-.908 2.089-.462l15.43 9.851c.704.446.908 1.385.462 2.089-.313.493-.861.736-1.401.689l-.008.008Z"/>
    <path fill="#7A6551" d="M208.311 153.837c-.266 3.075-2.973 5.36-6.056 5.094-3.075-.266-5.36-2.973-5.094-6.056.266-3.075 2.973-5.36 6.056-5.094 3.075.266 5.36 2.973 5.094 6.056Z"/>
    <path fill="#D1DFE0" d="M206.034 120.489c-.563-.047-.986-.547-.931-1.111l.266-3.051c.047-.564.548-.986 1.111-.931.563.047.986.547.931 1.111l-.266 3.051c-.047.564-.548.986-1.111.931ZM200.095 189.095c-.563-.047-.986-.548-.931-1.111l.251-2.88c.047-.563.547-.986 1.111-.931.563.047.986.548.931 1.111l-.251 2.879c-.047.564-.547.986-1.111.932ZM239.022 156.365l-2.793-.243c-.563-.047-.986-.548-.931-1.111.055-.563.547-.986 1.111-.931l2.793.243c.564.046.986.547.931 1.111-.047.563-.547.986-1.111.931ZM171.207 150.496l-3.834-.328c-.563-.047-.985-.548-.931-1.111.047-.564.548-.986 1.111-.931l3.834.328c.564.047.986.548.931 1.111-.046.564-.547.986-1.111.931ZM218.608 185.753c-.352-.031-.681-.242-.837-.579l-1.315-2.769c-.242-.509-.023-1.127.485-1.37.509-.242 1.127-.023 1.37.485l1.314 2.77c.243.509.024 1.127-.485 1.369-.172.079-.352.11-.524.094h-.008ZM188.985 123.306c-.352-.031-.681-.242-.838-.579l-1.197-2.535c-.242-.508-.023-1.127.485-1.369.509-.243 1.127-.024 1.37.485l1.197 2.535c.242.509.023 1.127-.485 1.369-.172.079-.352.11-.525.094h-.007ZM182.428 182.623c-.172-.015-.352-.078-.501-.187-.462-.329-.571-.971-.242-1.432l1.917-2.715c.328-.462.97-.572 1.431-.243.462.329.572.97.243 1.432l-1.917 2.715c-.219.305-.579.462-.923.43h-.008ZM222.34 126.193c-.172-.015-.352-.078-.5-.187-.462-.329-.571-.971-.243-1.432l1.62-2.293c.328-.462.97-.571 1.432-.242.461.328.571.97.242 1.431l-1.619 2.285c-.22.305-.579.462-.932.431v.007ZM171.513 170.269c-.337-.032-.65-.219-.814-.54-.266-.501-.078-1.119.422-1.393l3.029-1.627c.5-.266 1.118-.079 1.392.414.266.501.079 1.119-.414 1.393l-3.028 1.628c-.18.093-.384.133-.572.117l-.015.008ZM232.637 137.461c-.336-.032-.649-.219-.813-.54-.266-.501-.079-1.119.414-1.393l2.246-1.205c.501-.266 1.119-.078 1.393.415.266.501.078 1.119-.415 1.393l-2.246 1.205c-.18.093-.383.133-.571.117l-.008.008ZM231.487 175.464c-.188-.015-.383-.086-.54-.211l-2.206-1.729c-.446-.352-.524-.994-.172-1.44.352-.446.993-.524 1.439-.172l2.207 1.729c.446.352.524.994.172 1.44-.219.282-.563.415-.9.391v-.008ZM177.522 133.118c-.188-.016-.384-.086-.54-.211l-2.613-2.05c-.446-.352-.525-.994-.173-1.44.352-.446.994-.524 1.44-.172l2.613 2.05c.446.352.525.994.173 1.44-.22.281-.564.414-.9.391v-.008Z"/>
    <path fill="#BBD0DB" d="M93.5496 199.188c-2.23 6.643-.8216 14.311 4.9294 18.708 2.23 1.698 5.422 3.255 8.31 2.84 2.253-.32 4.021-2.261 3.145-4.577-.9-2.379-3.552-2.637-5.634-1.713-2.801 1.251-4.6864 4.17-5.2028 7.135-.9859 5.697 3.7948 10.626 9.5848 9.413 2.128-.446 5.219-2.308 4.163-4.929-1.119-2.77-4.64-1.878-6.596-.712-4.679 2.801-7.4961 9.452-5.172 14.616 2.324 5.164 9.561 7.324 14.311 4.139 1.643-1.103 3.263-3.599 1.369-5.289-1.753-1.557-4.296-.618-5.61.986-4.155 5.062-1.268 13.755 3.834 16.955 2.684 1.683 6.009 2.246 9.115 1.675 2.536-.47 5.509-2.121 5.501-5.07 0-2.277-2.175-3.271-4.17-2.661-2.653.814-3.733 3.842-3.694 6.377.11 6.51 6.15 10.892 12.387 9.319 2.589-.657 5.68-2.472 6.157-5.36.384-2.316-1.619-3.685-3.748-3.153-2.777.689-3.857 3.701-3.849 6.299.015 3.114 1.322 6.252 3.544 8.435 2.277 2.237 5.462 3.325 8.631 3.2 2.957-.118 6.752-1.244 8.208-4.085 1.025-2.003.477-4.765-2.043-5.093-2.785-.368-4.812 2.175-5.719 4.491-1.98 5.094.188 11.619 5.328 13.896 2.308 1.017 5.657 1.205 7.363-1.001 1.299-1.683.986-4.312-.72-5.603-2.363-1.791-5.68-.532-7.668 1.197-2.355 2.043-4.436 5.212-4.726 8.365-.219 2.425.963 5.36 3.639 5.782 2.042.321 4.507-1.048 4.812-3.208.297-2.128-1.557-3.912-3.631-3.388-.485.125-.274.869.204.743 2.566-.649 3.301 2.575 1.862 4.038-.689.696-1.714 1.103-2.692 1.087-3.247-.062-3.826-4.037-3.145-6.463 1.04-3.693 5.946-10.328 10.516-7.785 2.903 1.62 1.424 5.493-1.401 6.088-2.136.453-4.475-.454-6.103-1.808-2.84-2.363-4.131-6.346-3.419-9.937.414-2.097 1.541-4.562 3.623-5.438 1.877-.782 4.014.399 3.591 2.637-.274 1.471-1.424 2.551-2.66 3.278-4.116 2.418-9.906 1.784-13.318-1.541-2.856-2.793-5.086-9.17-1.768-12.465.97-.962 2.535-1.471 3.701-.618 1.518 1.104.673 2.966-.344 4.139-1.628 1.878-4.319 2.794-6.753 2.849-4.608.101-8.38-3.248-8.99-7.794-.297-2.19.125-4.929 2.097-6.259 1.072-.72 2.973-1.072 3.834.282.954 1.51-.376 3.489-1.581 4.334-3.74 2.606-9.702 1.393-12.941-1.447-3.373-2.95-4.805-8.153-3.459-12.441.642-2.066 2.927-5.078 5.407-3.466 1.753 1.134.422 3.223-.775 4.107-.978.728-2.136 1.151-3.333 1.362-3.748.665-7.871-1.025-9.749-4.405-1.902-3.427-1.025-7.778 1.087-10.892 1.119-1.651 2.645-3.044 4.484-3.85 1.526-.665 5.931-.774 4.342 2.567-.594 1.244-2.261 1.917-3.513 2.167-5.195 1.041-9.4831-3.325-8.6302-8.466.3992-2.402 1.7522-4.765 3.8182-6.111 1.088-.704 2.637-1.307 3.944-.845 2.073.728 2.363 3.654.422 4.734-2.175 1.205-5.274-.016-7.253-1.095-1.9875-1.088-3.7011-2.637-4.9687-4.507-2.9185-4.296-3.1297-9.758-1.5101-14.57.1565-.469-.5868-.672-.7433-.203l-.0313.008Z"/>
    <path fill="#2AA494" d="M85.2242 213.796c-8.3018 1.855-17.0026 1.815-18.4032-1.095-5.9779-12.394-6.3847-25.594-6.2595-30.985.0391-1.581.9154-3.146 2.3708-4.069 9.8432-6.205 20.6253-5.876 20.6253-5.876-.8529-2.387-2.0109-5.055-3.2628-7.723-5.1329-10.892-11.7524-20.985-19.7099-30.022-1.9483-2.215-3.9357-4.335-5.7901-6.072 0 0-3.9905 10.023-13.5989 16.588-1.4241.97-3.2081 1.15-4.6713.555-4.9998-2.034-16.9478-7.66-25.9381-18.074-2.11262-2.449 1.3067-10.446 6.3144-17.324 5.0076-6.877 12.8556-15.4218 25.0148-11.2279 12.1593 4.1939 32.6594 32.2679 39.8032 43.1519 7.1437 10.884 24.7411 40.86 23.7551 53.692-.986 12.824-11.948 16.627-20.2498 18.481Z"/>
    <path fill="#2AA494" d="M12.7853 124.488c9.4833 4.225 17.8868 10.469 24.6628 18.332.3286.384.8842-.172.5555-.555-6.8229-7.903-15.289-14.202-24.8271-18.45-.4538-.204-.8528.469-.3912.673ZM63.2845 180.143c4.726 9.945 6.8855 20.876 6.33 31.869-.0235.501.759.501.7824 0 .5634-11.134-1.6509-22.198-6.4317-32.268-.2191-.454-.892-.055-.6729.391l-.0078.008ZM55.46 128.142c.5399-1.025.9154-2.113 1.1111-3.255.086-.493-.6651-.705-.7512-.212-.1878 1.08-.5321 2.097-1.0328 3.068-.2348.446.446.845.6729.391v.008ZM83.7611 171.849c1.4397-.023 2.8559.086 4.2721.344.493.086.7042-.665.2113-.751-1.4867-.266-2.9733-.399-4.4756-.375-.5008 0-.5008.79 0 .782h-.0078ZM38.559 80.2713c6.0561-1.2911 12.1123-2.5821 18.1762-3.8731.493-.1018.2817-.8607-.2112-.7512-6.0562 1.2911-12.1123 2.5821-18.1763 3.8731-.4929.1018-.2817.8607.2113.7512ZM51.6886 75.1464c2.8716-.532 5.7353-1.0641 8.6069-1.5883.493-.0939.2817-.8451-.2112-.7512-2.8716.5321-5.7354 1.0642-8.607 1.5884-.4929.0939-.2816.845.2113.7511ZM206.856 28.09c2.003-.4773 3.998-.9468 6.001-1.4241.493-.1174.282-.8685-.211-.7512-2.003.4773-3.998.9468-6.001 1.4241-.493.1174-.282.8685.211.7512ZM204.383 31.6891l5.79-1.4319c.485-.1173.282-.8763-.211-.7511-1.933.4773-3.865.9546-5.79 1.4319-.485.1173-.282.8763.211.7511ZM208.671 43.8327c6.455-1.3771 12.91-2.7542 19.366-4.1313.493-.1017.281-.8607-.212-.7512-6.455 1.3771-12.91 2.7543-19.365 4.1314-.493.1017-.282.8607.211.7511Z"/>
  </g>
  <defs>
    <linearGradient id="b" x1="223.271" x2="108.572" y1="67.2183" y2="212.018" gradientUnits="userSpaceOnUse">
      <stop stop-color="#F4F4F4"/>
      <stop offset="1" stop-color="#EAAF65"/>
    </linearGradient>
    <linearGradient id="c" x1="225.571" x2="110.864" y1="69.0346" y2="213.835" gradientUnits="userSpaceOnUse">
      <stop stop-color="#fff"/>
      <stop offset="1" stop-color="#EAAF65"/>
    </linearGradient>
    <linearGradient id="d" x1="237.778" x2="123.079" y1="78.7085" y2="223.508" gradientUnits="userSpaceOnUse">
      <stop stop-color="#fff"/>
      <stop offset="1" stop-color="#EAAF65"/>
    </linearGradient>
    <linearGradient id="e" x1="249.994" x2="135.287" y1="88.3747" y2="233.175" gradientUnits="userSpaceOnUse">
      <stop stop-color="#fff"/>
      <stop offset="1" stop-color="#EAAF65"/>
    </linearGradient>
  </defs>
</svg>
