<svg xmlns="http://www.w3.org/2000/svg" version="1.1" xmlns:xlink="http://www.w3.org/1999/xlink" xmlns:svgjs="http://svgjs.com/svgjs" width="512" height="512" x="0" y="0" viewBox="0 0 512 512" style="enable-background:new 0 0 512 512" xml:space="preserve" class=""><g><path fill="#d19a6e" d="M312.807 306.734a24.773 24.773 0 0 1-7.259-17.521V268.6h-99.097v20.613c0 6.7-2.699 12.963-7.262 17.525l-9.254 81.392h132.129z" data-original="#d19a6e"></path><path fill="#c38c66" d="M206.451 268.599c14.832 7.738 31.661 12.175 49.548 12.175s34.716-4.437 49.548-12.175v-37.374H206.45v37.374z" data-original="#c38c66" class=""></path><path fill="#78c2a4" d="m401.141 346.517-80.578-34.533L269.543 377c-6.574 9.417-20.513 9.417-27.087 0l-51.02-65.017-80.578 34.533a33.032 33.032 0 0 0-20.02 30.361v110.348c0 13.683 11.092 24.774 24.774 24.774h22.911l9.726-4 8.653 4h49.548l8.298-5.25L224.83 512h171.557c13.682 0 24.774-11.092 24.774-24.774V376.878a33.032 33.032 0 0 0-20.02-30.361z" data-original="#78c2a4" class=""></path><path fill="#95d6a4" d="M320.563 311.983a24.702 24.702 0 0 1-7.756-5.249l-43.264 61.992c-6.574 9.417-20.513 9.417-27.087 0l-43.267-61.989a24.691 24.691 0 0 1-7.753 5.246l-6.571 2.816c.253.445.448.91.747 1.338l43.298 62.04c6.177 8.847 16.306 14.129 27.089 14.129s20.911-5.282 27.081-14.129l43.306-62.04c.299-.428.494-.893.747-1.338z" data-original="#95d6a4"></path><path fill="#e2a975" d="m363.355 132.543-16.516-3.877V82.581H165.161L182 173.419h177.226c11.402 0 20.645-9.244 20.645-20.645 0-9.977-7.109-18.306-16.516-20.231z" data-original="#e2a975"></path><path fill="#d19a6e" d="M214.71 107.355h132.129V82.581H165.161v40.253l-16.529 9.93c-8.536 2.058-15.501 8.939-16.396 17.881-1.238 12.358 8.434 22.775 20.538 22.775h45.419v-49.548c0-9.123 7.395-16.517 16.517-16.517z" data-original="#d19a6e"></path><path fill="#6e4848" d="M148.645 90.839v41.924c1.214-.326 3.495-.634 5.307-.634h11.21c9.121 0 16.516-7.395 16.516-16.516V82.581z" data-original="#6e4848"></path><path fill="#785353" d="M363.355 90.839v41.704a20.733 20.733 0 0 0-4.129-.414h-12.387c-9.121 0-16.516-7.395-16.516-16.516V82.581z" data-original="#785353"></path><path fill="#dbeaff" d="m330.322 132.129-16.516 41.29h-25.682c-8.62 0-15.608-6.988-15.608-15.608v-.025c0-8.227-5.621-15.852-13.742-17.173-10.348-1.683-19.29 6.259-19.29 16.29v.908c0 8.62-6.988 15.608-15.608 15.608h-38.209s17.428 88.043 65.216 90.697c1.694.094 3.4.142 5.118.142 50.169 0 90.839-40.67 90.839-90.839v-41.29z" data-original="#dbeaff"></path><path fill="#c3ddff" d="M198.193 181.677v-16.516l-16.516-33.032h-16.516v41.29c0 48.415 37.983 87.99 85.721 90.697-31.043-14.443-52.689-45.945-52.689-82.439z" data-original="#c3ddff" class=""></path><path fill="#4b3f4e" d="M181.677 384.742a8.256 8.256 0 0 1-8.258-8.258v-60.847c0-4.56 3.694-8.258 8.258-8.258s8.258 3.698 8.258 8.258v60.847a8.256 8.256 0 0 1-8.258 8.258z" data-original="#4b3f4e"></path><path fill="#eceaec" d="M115.032 479.387c-2.556 7.641-1.314 15.778 3.395 22.318 4.71 6.541 12.032 10.294 20.097 10.294h10.121a8.256 8.256 0 0 0 8.258-8.258 8.256 8.256 0 0 0-8.258-8.258h-10.121a8.176 8.176 0 0 1-6.702-3.432 8.185 8.185 0 0 1-1.129-7.435l18.396-55.198-6.778-5.919-10.625 5.919zM248.322 479.391l-16.656-49.972-10.104-6.044-7.299 6.045 18.398 55.201a8.179 8.179 0 0 1-1.129 7.431 8.175 8.175 0 0 1-6.702 3.432h-10.12c-4.564 0-8.258 3.698-8.258 8.258S210.146 512 214.71 512h10.121c8.065 0 15.387-3.754 20.097-10.294 4.709-6.54 5.951-14.678 3.394-22.315z" data-original="#eceaec"></path><path fill="#6f6571" d="M188.597 371.613h-13.839a32.979 32.979 0 0 0-31.331 22.585l-11.74 35.222h17.403l9.998-30a16.499 16.499 0 0 1 15.669-11.29h13.839a16.497 16.497 0 0 1 15.669 11.294l9.997 29.996h17.403l-11.739-35.218a32.975 32.975 0 0 0-31.329-22.589z" data-original="#6f6571"></path><path fill="#4b3f4e" d="M330.322 429.419a8.256 8.256 0 0 1-8.258-8.258V314.766c0-4.56 3.694-8.258 8.258-8.258s8.258 3.698 8.258 8.258v106.395a8.255 8.255 0 0 1-8.258 8.258z" data-original="#4b3f4e"></path><circle cx="330.322" cy="421.161" r="24.774" fill="#6f6571" data-original="#6f6571"></circle><path fill="#4b3f4e" d="M272.516 138.76c-3.419-3.226-7.656-5.52-12.419-6.296-7.266-1.177-14.597.847-20.145 5.565-.175.149-.297.341-.468.494v18.381h8.258a8.26 8.26 0 0 1 2.911-6.294c1.879-1.601 4.29-2.258 6.79-1.847 3.637.593 6.54 4.266 6.75 8.544l8.323-.407z" data-original="#4b3f4e"></path><path fill="#95d6a4" d="M256 0c-21.283 0-41.12 2.62-57.807 7.14L181.667 27v50l148.656 13.839h33.032v-45.42C363.355 20.334 315.29 0 256 0z" data-original="#95d6a4"></path><path fill="#4b3f4e" d="M165.161 123.871h24.774v16.516h-24.774a8.258 8.258 0 0 1-8.258-8.258 8.258 8.258 0 0 1 8.258-8.258zM346.839 140.387h-24.774v-16.516h24.774a8.258 8.258 0 1 1 0 16.516z" data-original="#4b3f4e"></path><path fill="#5d5360" d="M222.968 181.677h-8.258c-18.218 0-33.032-14.819-33.032-33.032v-16.516a8.256 8.256 0 0 1 8.258-8.258h41.29c9.105 0 16.516 7.407 16.516 16.516v16.516c0 13.662-11.113 24.774-24.774 24.774z" data-original="#5d5360"></path><path fill="#d19a6e" d="M198.193 140.387v8.258c0 9.109 7.411 16.516 16.516 16.516l16.516-16.516v-8.258z" data-original="#d19a6e"></path><path fill="#5d5360" d="M264.258 156.903v-16.516c0-9.109 7.411-16.516 16.516-16.516h41.29a8.256 8.256 0 0 1 8.258 8.258v16.516c0 18.214-14.815 33.032-33.032 33.032h-8.258c-13.661 0-24.774-11.112-24.774-24.774z" data-original="#5d5360"></path><path fill="#d19a6e" d="M280.774 140.387v16.516c0 4.552 3.702 8.258 8.258 8.258h8.258l16.516-16.516v-8.258z" data-original="#d19a6e"></path><path fill="#78c2a4" d="M198.193 49.548V7.141c-29.768 8.074-49.548 22.208-49.548 38.278v45.419h181.677c0-9.122-7.395-16.516-16.516-16.516h-90.839c-13.682.001-24.774-11.091-24.774-24.774z" data-original="#78c2a4" class=""></path><circle cx="330.322" cy="421.161" r="8.258" fill="#dad8db" data-original="#dad8db"></circle><path fill="#4b3f4e" d="M156.903 512h-8.258v-16.516h8.258a8.258 8.258 0 0 1 8.258 8.258 8.258 8.258 0 0 1-8.258 8.258zM206.451 495.484h8.258V512h-8.258a8.258 8.258 0 1 1 0-16.516z" data-original="#4b3f4e"></path><g fill="#e2a975"><path d="M222.968 165.161h-8.258v-8.258a8.258 8.258 0 0 1 8.258-8.258h8.258v8.258a8.258 8.258 0 0 1-8.258 8.258zM297.29 165.161v-8.258a8.258 8.258 0 0 1 8.258-8.258h8.258c0 9.122-7.394 16.516-16.516 16.516z" fill="#e2a975" data-original="#e2a975"></path></g></g></svg>