<svg xmlns="http://www.w3.org/2000/svg" version="1.1" xmlns:xlink="http://www.w3.org/1999/xlink" xmlns:svgjs="http://svgjs.com/svgjs" width="512" height="512" x="0" y="0" viewBox="0 0 64 64" style="enable-background:new 0 0 512 512" xml:space="preserve" class=""><g><path fill="#414042" d="M38 3h-8a4 4 0 0 0-4 4 2 2 0 0 0-2-2h-2a4 4 0 0 0-4 4v14h28V11a8 8 0 0 0-8-8z" data-original="#414042" class=""></path><path fill="#58595b" d="M24 5h-2a4 4 0 0 0-4 4v14h8V7a2 2 0 0 0-2-2z" data-original="#58595b"></path><path fill="#006df0" d="M55.9 50.005A10 10 0 0 0 45.95 41h-6.62c-1.23 3.53-4.05 6-7.33 6s-6.095-2.47-7.33-6h-6.058a10 10 0 0 0-9.889 8.517L7 61h50z" data-original="#006df0"></path><path fill="#005ece" d="M20 61h-2v-6a1 1 0 0 1 1-1 1 1 0 0 1 1 1zM46 61h-2v-6a1 1 0 0 1 1-1 1 1 0 0 1 1 1zM55.9 50.005A10 10 0 0 0 45.95 41h-2a10 10 0 0 1 9.95 9.005L55 61h2z" data-original="#005ece"></path><path fill="#57a4ff" d="M15 19c0-1.105-2-4-2-4s-2 2.895-2 4a2 2 0 0 0 4 0z" data-original="#57a4ff" class=""></path><path fill="#9bc9ff" d="M37 14c0-1.105-2-4-2-4s-2 2.895-2 4a2 2 0 0 0 4 0z" data-original="#9bc9ff"></path><path fill="#57a4ff" d="M14 38a3 3 0 0 0 3-3c0-1.657-3-5-3-5s-3 3.343-3 5a3 3 0 0 0 3 3z" data-original="#57a4ff" class=""></path><path fill="#ffac96" d="M42 21h3a2 2 0 0 1 2 2v3a2 2 0 0 1-2 2h-3v-7zM22 28h-3a2 2 0 0 1-2-2v-3a2 2 0 0 1 2-2h3v7zM32 47c3.28 0 6.095-2.47 7.33-6H39c-.027 0-.052-.007-.078-.008A2 2 0 0 1 37 39v-3.21a10.936 10.936 0 0 1-10 0V39a2 2 0 0 1-1.922 1.992c-.026 0-.051.008-.078.008h-.33c1.235 3.53 4.05 6 7.33 6z" data-original="#ffac96" class=""></path><path fill="#ff9478" d="M37 37.79v-2a10.936 10.936 0 0 1-10 0v2a10.936 10.936 0 0 0 10 0z" data-original="#ff9478"></path><path fill="#ff9811" d="M61 46a7 7 0 1 1-10-6.32V6a3 3 0 0 1 6 0v33.68A6.97 6.97 0 0 1 61 46z" data-original="#ff9811"></path><path fill="#ee8700" d="M57 39.68V6a2.973 2.973 0 0 0-4-2.816A2.963 2.963 0 0 1 55 6v33.68a6.992 6.992 0 0 1-2 13.241 6.993 6.993 0 0 0 4-13.241z" data-original="#ee8700"></path><circle cx="54" cy="46" r="2" fill="#d80027" data-original="#d80027"></circle><path fill="#ffbcab" d="M25 13h14a4 4 0 0 1 4 4v9a11 11 0 0 1-11 11 11 11 0 0 1-11-11v-9a4 4 0 0 1 4-4z" data-original="#ffbcab" class=""></path><path fill="#2488ff" d="M33 14a2 2 0 0 0 4 0c0-1.105-2-4-2-4s-2 2.9-2 4z" data-original="#2488ff" class=""></path><path fill="#6d6e71" d="M34.294 32.708a1 1 0 1 0 1.412-1.416l-.171-.17a5 5 0 0 0-7.069 0l-.172.171a1 1 0 1 0 1.412 1.416l.173-.172a3.069 3.069 0 0 1 4.243 0zM30.212 27.615A1 1 0 0 0 31 28h2a1 1 0 0 0 0-2h-.719l.689-2.757a1 1 0 0 0-1.94-.486l-1 4a1 1 0 0 0 .182.858zM30.71 19.71l-.24.24A7.523 7.523 0 0 1 29 21.07V22a1 1 0 0 1-2 0v-.16a7.312 7.312 0 0 1-1.49.16H25a1 1 0 0 1 0-2h.51a4.976 4.976 0 0 0 3.54-1.46l.24-.25a1 1 0 0 1 1.42 1.42zM40 21a1 1 0 0 1-1 1h-.51a7.312 7.312 0 0 1-1.49-.16V22a1 1 0 0 1-2 0v-.93a7.176 7.176 0 0 1-1.46-1.12l-.25-.24a1 1 0 0 1 1.42-1.42l.24.25A4.976 4.976 0 0 0 38.49 20H39a1 1 0 0 1 1 1z" data-original="#6d6e71" class=""></path><g fill="#aa6100"><path d="M54 8h3v2h-3zM54 12h3v2h-3zM54 16h3v2h-3zM54 20h3v2h-3zM54 24h3v2h-3zM54 28h3v2h-3zM54 32h3v2h-3zM54 36h3v2h-3z" fill="#aa6100" data-original="#aa6100"></path></g><path fill="#d80027" d="M53 16h2v30h-2z" data-original="#d80027"></path></g></svg>