<?xml version="1.0" encoding="UTF-8"?>
<svg xmlns="http://www.w3.org/2000/svg" viewBox="0 0 510 360.63">
  <g style="isolation: isolate;">
    <g id="Layer_2" data-name="Layer 2">
      <g id="OBJECT">
        <g>
          <path d="M195.51,211.53c0,.72-.58,1.3-1.3,1.3s-1.3-.58-1.3-1.3,.58-1.3,1.3-1.3,1.3,.58,1.3,1.3Z" style="fill: #85eddb;"/>
          <path d="M122.46,36.54c0,.72-.58,1.3-1.3,1.3s-1.3-.58-1.3-1.3,.58-1.3,1.3-1.3,1.3,.58,1.3,1.3Z" style="fill: #85eddb;"/>
          <path d="M301.12,79.54c0,.72-.58,1.3-1.3,1.3s-1.3-.58-1.3-1.3,.58-1.3,1.3-1.3,1.3,.58,1.3,1.3Z" style="fill: #85eddb;"/>
          <path d="M421.68,79.54c0,.72-.58,1.3-1.3,1.3s-1.3-.58-1.3-1.3,.58-1.3,1.3-1.3,1.3,.58,1.3,1.3Z" style="fill: #85eddb;"/>
          <path d="M382.74,155.64c0,.72-.58,1.3-1.3,1.3s-1.3-.58-1.3-1.3,.58-1.3,1.3-1.3,1.3,.58,1.3,1.3Z" style="fill: #85eddb;"/>
          <g>
            <path d="M67.48,110.94c-.28,0-.51-.23-.51-.51v-3.59c0-.28,.23-.51,.51-.51s.51,.23,.51,.51v3.59c0,.28-.23,.51-.51,.51Z" style="fill: #85eddb;"/>
            <path d="M69.27,109.14h-3.59c-.28,0-.51-.23-.51-.51s.23-.51,.51-.51h3.59c.28,0,.51,.23,.51,.51s-.23,.51-.51,.51Z" style="fill: #85eddb;"/>
          </g>
          <g>
            <path d="M127.74,166.23c-.28,0-.51-.23-.51-.51v-3.59c0-.28,.23-.51,.51-.51s.51,.23,.51,.51v3.59c0,.28-.23,.51-.51,.51Z" style="fill: #85eddb;"/>
            <path d="M129.54,164.43h-3.59c-.28,0-.51-.23-.51-.51s.23-.51,.51-.51h3.59c.28,0,.51,.23,.51,.51s-.23,.51-.51,.51Z" style="fill: #85eddb;"/>
          </g>
          <g>
            <path d="M370.25,21.37c-.28,0-.51-.23-.51-.51v-3.59c0-.28,.23-.51,.51-.51s.51,.23,.51,.51v3.59c0,.28-.23,.51-.51,.51Z" style="fill: #85eddb;"/>
            <path d="M372.05,19.57h-3.59c-.28,0-.51-.23-.51-.51s.23-.51,.51-.51h3.59c.28,0,.51,.23,.51,.51s-.23,.51-.51,.51Z" style="fill: #85eddb;"/>
          </g>
          <g>
            <path d="M476.46,170.34c-.28,0-.51-.23-.51-.51v-3.59c0-.28,.23-.51,.51-.51s.51,.23,.51,.51v3.59c0,.28-.23,.51-.51,.51Z" style="fill: #85eddb;"/>
            <path d="M478.26,168.54h-3.59c-.28,0-.51-.23-.51-.51s.23-.51,.51-.51h3.59c.28,0,.51,.23,.51,.51s-.23,.51-.51,.51Z" style="fill: #85eddb;"/>
          </g>
          <g>
            <path d="M309.6,224.51c-.28,0-.51-.23-.51-.51v-3.59c0-.28,.23-.51,.51-.51s.51,.23,.51,.51v3.59c0,.28-.23,.51-.51,.51Z" style="fill: #85eddb;"/>
            <path d="M311.4,222.72h-3.59c-.28,0-.51-.23-.51-.51s.23-.51,.51-.51h3.59c.28,0,.51,.23,.51,.51s-.23,.51-.51,.51Z" style="fill: #85eddb;"/>
          </g>
          <g>
            <path d="M255.72,4.61c-.28,0-.51-.23-.51-.51V.51c0-.28,.23-.51,.51-.51s.51,.23,.51,.51v3.59c0,.28-.23,.51-.51,.51Z" style="fill: #85eddb;"/>
            <path d="M257.51,2.82h-3.59c-.28,0-.51-.23-.51-.51s.23-.51,.51-.51h3.59c.28,0,.51,.23,.51,.51s-.23,.51-.51,.51Z" style="fill: #85eddb;"/>
          </g>
        </g>
        <g>
          <g>
            <g>
              <path d="M304.17,322.29c4.23-8.6,11.07-15.72,18.62-21.5,6.09-4.66,12.98-9.2,20.19-11.88,6.4-2.38,7.82,3.21,12.98,5.12,3.3,1.22,6.96-.65,9.56-3.02,2.5-2.29,4.57-5.17,7.56-6.89,2.2-1.27,5.49-1.9,7.81-.54,2.87,1.69,2.38,5.83,6.26,6.3,1.81,.22,3.61-.43,5.24-1.23,3.85-1.89,7.66-3.63,11.78-4.84,3.73-1.09,8.56-1.46,10.71,1.78,2.07,3.1,.1,7.32-2.38,10.09-5.99,6.69-14.83,10.3-23.73,11.48-2.43,.32-4.92,.5-7.16,1.48-2.24,.99-4.22,3.02-4.31,5.47-.05,1.32,.44,2.6,.46,3.92,.05,3.66-3.56,6.39-7.13,7.21-9.18,2.1-15.15-5.96-23.78-7.2-9.78-1.4-24.85,.13-31.64,8.36" style="fill: #b7ffeb;"/>
              <path d="M320.3,318.26c9.46-8.82,22.01-14.67,35.13-16.37,8.18-1.06,16.47-.55,24.68-1.29,8.21-.74,16.72-2.96,22.64-8.43" style="fill: none; opacity: .5; stroke: #fff; stroke-linecap: round; stroke-linejoin: round; stroke-width: .89px;"/>
            </g>
            <g>
              <path d="M363.16,281.87c4.89-2.83,10.14-6.76,8.75-12.75-.45-1.97-1.9-3.76-1.66-5.76,.16-1.32,1.04-2.42,1.69-3.59,1.53-2.77,1.74-6.23,.56-9.17-1.26-3.16-3.93-5.53-5.6-8.5-1.36-2.42-2.03-5.23-1.9-8-5.16,.54-9.62,3.8-14.62,5.21-3.82,1.08-7.9,1.06-11.67,2.29-6.88,2.26-12.06,8.97-12.5,16.2-3.31-.26-6.71,1.24-8.76,3.85-2.17,2.78-3.2,6.55-2.65,10.04,2.25,14.54,9.73,26.1,19.3,36.88-2.08-2.35,4.31-9.63,5.55-11.05,5.37-6.17,12.75-9.73,19.79-13.59,1.12-.62,2.41-1.29,3.72-2.05Z" style="fill: #b7ffeb;"/>
              <g style="opacity: .5;">
                <path d="M335.26,289.05c-1.22-6.23,.41-12.65,2.41-18.68,1.94-5.88,4.27-11.67,7.62-16.87,3.36-5.2,7.81-9.8,13.29-12.66" style="fill: none; stroke: #fff; stroke-linecap: round; stroke-linejoin: round; stroke-width: .89px;"/>
                <path d="M336.91,246.71c-.13,5.67,.94,12.38,2.9,17.7" style="fill: none; stroke: #fff; stroke-linecap: round; stroke-linejoin: round; stroke-width: .89px;"/>
                <path d="M340.68,262.31c6.03-4.7,15.65-8.09,23.29-8.35" style="fill: none; stroke: #fff; stroke-linecap: round; stroke-linejoin: round; stroke-width: .89px;"/>
                <path d="M325.11,264.8c8.01,2.55,9.37,13.86,9.87,17.06" style="fill: none; stroke: #fff; stroke-linecap: round; stroke-linejoin: round; stroke-width: .89px;"/>
                <path d="M336.42,274.45c5.51-4.77,15-9.87,21.42-8.87" style="fill: none; stroke: #fff; stroke-linecap: round; stroke-linejoin: round; stroke-width: .89px;"/>
                <path d="M335.25,288.47c4.38-5.84,16.35-12.98,22.77-11.98" style="fill: none; stroke: #fff; stroke-linecap: round; stroke-linejoin: round; stroke-width: .89px;"/>
                <path d="M349.73,242.6c-1.57,2.35-1.78,5-1.43,6.78" style="fill: none; stroke: #fff; stroke-linecap: round; stroke-linejoin: round; stroke-width: .89px;"/>
                <path d="M349.83,247.63c2.59-1.64,6.2-2.3,10.18-1.68" style="fill: none; stroke: #fff; stroke-linecap: round; stroke-linejoin: round; stroke-width: .89px;"/>
              </g>
            </g>
            <g>
              <path d="M223.97,332.77c-6.61-18.12-23.57-35.02-40.27-44.67-4.07-2.35-10.02-4.13-11.88,1.49-1.2,3.61-5.41,2.67-7.81,1-2.98-2.07-4.72-5.43-7.25-7.96-2.03-2.03-4.62-3.59-7.46-4.05-2.84-.46-5.93,.28-8.01,2.27-1.58,1.5-2.53,3.62-4.28,4.93-2.93,2.19-7.2,1.37-10.32-.54-3.12-1.91-5.58-4.74-8.6-6.81-3.02-2.06-7.1-3.28-10.32-1.54-4.26,2.31-4.65,8.47-2.84,12.97,1.12,2.78,2.88,6.81,5.01,8.98,3.01,3.09,7.4,5.15,11.59,5.97,3.09,.61,6.28,.59,9.35,1.32,1.11,.26,2.38,.73,2.6,2.01,.32,1.84-1.96,2.97-3.29,3.64-2.3,1.16-4.58,3.69-3.51,6.03,.67,1.47,2.4,2.13,3.99,2.4,4.79,.81,9.53-.57,14.07-1.97,2.76-.85,5.18-2.58,8.02-3.31,1.47-.38,5.24-.55,4.84,1.94-.13,.78-.68,1.42-1.28,1.93-.6,.51-1.27,.95-1.77,1.56-2.18,2.65-.02,5.76,2.84,6.45,2.2,.53,4.49-.03,6.69-.55,14.38-3.36,29.46-4.66,43.93-1.73,3.08,.62,6.45,1.68,8,4.42" style="fill: #b7ffeb;"/>
              <path d="M208.47,321.35c-10.58-9.79-24.59-16.25-39.23-18.08-9.12-1.14-18.36-.54-27.51-1.33-9.15-.79-18.65-3.22-25.27-9.29" style="fill: none; opacity: .5; stroke: #fff; stroke-linecap: round; stroke-linejoin: round; stroke-width: .89px;"/>
              <g>
                <path d="M211.75,322.75s-25.15-16.73-32.25-33.7c4.8,1.3,7.9,2.86,11.27,5.6,3.63,5.13,12.28,13.01,18.15,18.12,.84,2.8,1.77,6.09,2.83,9.98Z" style="fill: #f0fffc; mix-blend-mode: multiply; opacity: .25;"/>
                <path d="M210.8,317.01c-.94-5.91-3.55-11.77-4.57-17.78-1.64-9.63-1.89-19.31-.11-28.88,1.52-8.15,4.04-16.69,1.28-24.94-.73-2.19-2.09-4.56-4.93-4.54-1.14,0-2.22,.48-3.04,1.21-2.07,1.84-2.45,4.48-2.79,7l-1.13,8.43c-.37,2.74-4.54,3.07-5.38,.4,0-.02-.01-.04-.02-.07-.68-2.24-.56-4.61-.38-6.92,.39-5.03,1.04-10.1,.27-15.11-.93-6.06-4.26-12.21-10.74-14.49-2.3-.81-4.84-.91-7.16-.25-6.49,1.85-7.8,7.97-6.5,13.09,.92,3.6,2.95,6.87,4.81,10.16,4.54,8.02,2.09,15.65,3.23,24.62,2.41,19,21.01,37.37,37.17,48.05Z" style="fill: #b7ffeb;"/>
                <path d="M175.28,232.09c13.59,16.44,8.68,55.26,32.36,76.21" style="fill: none; opacity: .5; stroke: #fff; stroke-linecap: round; stroke-linejoin: round; stroke-width: .89px;"/>
                <path d="M201.8,251.4c1.55,8.31-3.79,17.64-5.03,22.81-1.24,5.17-1.89,13.98-.56,19.17" style="fill: none; opacity: .5; stroke: #fff; stroke-linecap: round; stroke-linejoin: round; stroke-width: .89px;"/>
              </g>
            </g>
            <path d="M162.78,332.6c-.59-3.32-9.87-24.04-20.61-18.49-6.38,3.3-5.23,15.43,4.73,24.59-1.96-1.89-4.21-4.04-6.88-4.57-1.44-.29-3.21,.38-4.29,1.37-.96,.89-1.24,2.29-1.29,3.6-.16,4.75,2.32,9.51,6.3,12.11-2.2-1.23-4.11-2.77-6.63-2.99-.82-.07-2.2,.4-2.58,1.13-.41,.79-.38,3.76,4.47,5.98-19.78-3.75-20.93,4.68-13.82,4.68h58.31" style="fill: #fff;"/>
            <path d="M199.84,316.15c-.94-5.32-10.74-38.76-27.93-29.88-10.21,5.28-8.38,24.7,7.58,39.37-3.13-3.03-6.75-6.46-11.02-7.31-2.31-.46-5.13,.6-6.86,2.2-1.54,1.42-1.99,3.66-2.06,5.76-.26,7.61,3.71,15.23,10.09,19.38-3.53-1.97-6.59-4.44-10.61-4.79-1.31-.11-3.53,.64-4.13,1.8-.66,1.27-.61,6.02,7.15,9.57-31.66-6.01-33.51,7.49-22.13,7.49h75.22" style="fill: #defff6;"/>
            <path d="M369.23,332.6c.59-3.32,9.87-24.04,20.61-18.49,6.38,3.3,5.23,15.43-4.73,24.59,1.96-1.89,4.21-4.04,6.88-4.57,1.44-.29,3.21,.38,4.29,1.37,.96,.89,1.24,2.29,1.29,3.6,.16,4.75-2.32,9.51-6.3,12.11,2.2-1.23,4.11-2.77,6.63-2.99,.82-.07,2.2,.4,2.58,1.13,.41,.79,.38,3.76-4.47,5.98,19.78-3.75,20.93,4.68,13.82,4.68h-58.31" style="fill: #fff;"/>
            <path d="M332.16,316.15c.94-5.32,10.74-38.76,27.93-29.88,10.21,5.28,8.38,24.7-7.58,39.37,3.13-3.03,6.75-6.46,11.02-7.31,2.31-.46,5.13,.6,6.86,2.2,1.54,1.42,1.99,3.66,2.06,5.76,.26,7.61-3.71,15.23-10.09,19.38,3.53-1.97,6.59-4.44,10.61-4.79,1.31-.11,3.53,.64,4.13,1.8,.66,1.27,.61,6.02-7.15,9.57,31.66-6.01,33.51,7.49,22.13,7.49h-75.22" style="fill: #defff6;"/>
          </g>
          <g>
            <path d="M278.77,247.66c-8.71-2.4-15.34-9.79-15.86-18.81-.02-.44-.04-.87-.04-1.3,0-.12,0-.26,.02-.39-.02-.12-.02-.26-.02-.39,0-.43,.02-.86,.04-1.3,.52-9.02,7.15-16.41,15.86-18.81,32.81-9.08,56.92-39.16,56.92-74.86,0-4.8-.43-9.5-1.28-14.06-.14-.78-.29-1.55-.46-2.31-.12-.56-.24-1.12-.38-1.68,0-.03-.01-.07-.02-.1-.07-.29-.14-.58-.22-.87-.13-.56-.27-1.1-.43-1.65-.23-.84-.47-1.67-.73-2.5h-2.65c.09,.27,.18,.54,.25,.81,.02,.05,.04,.09,.05,.14,.15,.47,.29,.94,.42,1.41,.09,.31,.18,.61,.25,.92,.14,.49,.27,.97,.39,1.46,.08,.31,.16,.62,.22,.92,.13,.5,.24,.99,.34,1.49,.04,.17,.08,.34,.11,.51,.01,.06,.03,.13,.04,.2,.12,.57,.23,1.14,.33,1.71,.82,4.42,1.24,8.99,1.24,13.6,0,33.67-22.65,63.45-55.06,72.42-10.03,2.77-17.15,11.24-17.71,21.11-.03,.48-.04,.96-.04,1.44,0,.13,0,.27,.01,.39-.01,.13-.01,.27-.01,.39,0,.48,.01,.96,.04,1.44,.56,9.87,7.68,18.35,17.71,21.11,32.41,8.97,55.06,38.76,55.06,72.42,0,4.61-.42,9.19-1.24,13.61-1.13,6.3-3.09,12.43-5.83,18.25H189.96c-2.74-5.82-4.7-11.95-5.84-18.26-.82-4.41-1.23-8.99-1.23-13.6,0-33.66,22.65-63.45,55.06-72.42,10.03-2.76,17.14-11.24,17.71-21.11,.03-.48,.04-.96,.04-1.44,0-.12,0-.26-.01-.39,.01-.12,.01-.26,.01-.39,0-.48-.01-.96-.04-1.44-.57-9.87-7.68-18.34-17.71-21.11-32.41-8.97-55.06-38.75-55.06-72.42,0-4.61,.41-9.18,1.23-13.6,.14-.79,.3-1.57,.47-2.36,0-.02,.01-.04,.01-.06,.17-.76,.34-1.52,.53-2.28,.01-.04,.02-.08,.03-.13,.15-.58,.3-1.17,.47-1.74,.01-.05,.03-.09,.04-.14,.05-.22,.12-.45,.19-.67,.11-.42,.24-.83,.37-1.24,.01-.05,.03-.09,.05-.14,.07-.27,.16-.54,.25-.81h-2.65c-.26,.83-.5,1.66-.73,2.5-.16,.55-.3,1.09-.43,1.65-.08,.29-.15,.58-.22,.87-.01,.03-.02,.07-.02,.1-.14,.56-.26,1.12-.38,1.68-.17,.76-.32,1.53-.46,2.31-.85,4.56-1.28,9.26-1.28,14.06,0,35.7,24.1,65.78,56.92,74.86,8.7,2.4,15.34,9.79,15.85,18.81,.03,.44,.04,.87,.04,1.3,0,.13,0,.27-.01,.39,.01,.13,.01,.27,.01,.39,0,.43-.01,.86-.04,1.3-.51,9.02-7.15,16.41-15.85,18.81-32.82,9.09-56.92,39.16-56.92,74.86,0,4.8,.43,9.5,1.28,14.06,1.3,7.18,3.6,14,6.73,20.33h139.31c3.13-6.33,5.43-13.15,6.73-20.33,.85-4.56,1.28-9.26,1.28-14.06,0-35.7-24.11-65.77-56.92-74.86Z" style="fill: #2aa494; opacity: .2;"/>
            <path d="M333.16,322.52c0,4.61-.42,9.19-1.24,13.61-1.13,6.3-3.09,12.43-5.83,18.25H189.96c-2.74-5.82-4.7-11.95-5.84-18.26-.82-4.41-1.23-8.99-1.23-13.6,0-33.66,22.65-63.45,55.06-72.42,10.03-2.76,17.14-11.24,17.71-21.11,.03-.48,.04-.96,.04-1.44,0-.12,0-.26-.01-.39,.01-.12,.01-.26,.01-.39,0-.48-.01-.96-.04-1.44-.57-9.87-7.68-18.34-17.71-21.11-32.41-8.97-55.06-38.75-55.06-72.42,0-4.61,.41-9.18,1.23-13.6,.14-.79,.3-1.57,.47-2.36,0-.02,.01-.04,.01-.06,.16-.76,.34-1.52,.53-2.28,.01-.04,.02-.08,.03-.13,.16-.63,.32-1.25,.51-1.88,.17-.64,.36-1.28,.56-1.91,.1-.32,.2-.64,.3-.95h142.99c.1,.31,.2,.63,.3,.95,.15,.47,.29,.94,.42,1.41,.09,.31,.18,.61,.25,.92,.14,.49,.27,.97,.39,1.46,.08,.31,.16,.62,.22,.92,.13,.5,.24,.99,.34,1.49,.05,.23,.1,.47,.15,.71,.12,.57,.23,1.14,.33,1.71,.82,4.42,1.24,8.99,1.24,13.6,0,33.67-22.65,63.45-55.06,72.42-10.03,2.77-17.15,11.24-17.71,21.11-.03,.48-.04,.96-.04,1.44,0,.13,0,.27,.01,.39-.01,.13-.01,.27-.01,.39,0,.48,.01,.96,.04,1.44,.56,9.87,7.68,18.35,17.71,21.11,32.41,8.97,55.06,38.76,55.06,72.42Z" style="fill: #fff;"/>
            <path d="M333.16,322.52c0,4.61-.42,9.19-1.24,13.61-1.13,6.3-3.09,12.43-5.83,18.25H189.96c-2.74-5.82-4.7-11.95-5.84-18.26-.82-4.41-1.23-8.99-1.23-13.6,0-33.66,22.65-63.45,55.06-72.42,10.03-2.76,17.14-11.24,17.71-21.11,.03-.48,.04-.96,.04-1.44,0-.12,0-.26-.01-.39,.01-.12,.01-.26,.01-.39,0-.48-.01-.96-.04-1.44-.57-9.87-7.68-18.34-17.71-21.11-32.41-8.97-55.06-38.75-55.06-72.42,0-4.61,.41-9.18,1.23-13.6,.14-.79,.3-1.57,.47-2.36,0-.02,.01-.04,.01-.06,.16-.76,.34-1.52,.53-2.28,.01-.04,.02-.08,.03-.13,.16-.63,.32-1.25,.51-1.88,.17-.64,.36-1.28,.56-1.91,.1-.32,.2-.64,.3-.95h142.99c.1,.31,.2,.63,.3,.95,.15,.47,.29,.94,.42,1.41,.09,.31,.18,.61,.25,.92,.14,.49,.27,.97,.39,1.46,.08,.31,.16,.62,.22,.92,.13,.5,.24,.99,.34,1.49,.05,.23,.1,.47,.15,.71,.12,.57,.23,1.14,.33,1.71,.82,4.42,1.24,8.99,1.24,13.6,0,33.67-22.65,63.45-55.06,72.42-10.03,2.77-17.15,11.24-17.71,21.11-.03,.48-.04,.96-.04,1.44,0,.13,0,.27,.01,.39-.01,.13-.01,.27-.01,.39,0,.48,.01,.96,.04,1.44,.56,9.87,7.68,18.35,17.71,21.11,32.41,8.97,55.06,38.76,55.06,72.42Z" style="fill: #d7ecfa; opacity: .5;"/>
            <path d="M196.06,176.06s11.85,19.42,40.27,28.35c7.28,2.14,9.73,3.72,13.92,7.58,4.19,3.86,5.62,10.65,5.46,16.02-.06,4.16,2.33,65,2.33,72.58,0,7.15,.93,1.85,.72,.32,.74-43.06,1.61-74.73,1.61-74.73,0,0,2.57-13.54,6.56-15.4,3.98-1.87,18.44-8.58,24.35-10.24s20.21-14.69,20.21-14.69c0,0,18.16-25.9,19.26-29.21,1.11-3.32-8.21-3.63-8.21-3.63l-126.48,23.05Z" style="fill: #ff9a30;"/>
            <ellipse cx="262.34" cy="163.14" rx="69.76" ry="14.41" transform="translate(-22.11 42.62) rotate(-8.91)" style="fill: #fdcf33;"/>
            <g style="mix-blend-mode: screen; opacity: .5;">
              <path d="M237.58,194.69c-.82,0-1.65-.13-2.46-.41-5.43-1.87-10.46-4.24-14.96-7.06-3.54-2.23-4.61-6.91-2.39-10.45,2.23-3.54,6.91-4.61,10.45-2.39,3.51,2.2,7.48,4.07,11.82,5.56,3.96,1.36,6.07,5.67,4.71,9.63-1.08,3.14-4.02,5.12-7.17,5.12Z" style="fill: #fff;"/>
              <path d="M207.94,172.33c-2.51,0-4.96-1.24-6.4-3.51-13.22-20.77-9.81-44.09-9.66-45.08,.64-4.14,4.51-6.98,8.64-6.34,4.13,.64,6.96,4.49,6.34,8.62-.04,.31-2.58,18.86,7.47,34.66,2.25,3.53,1.21,8.22-2.33,10.46-1.26,.8-2.67,1.19-4.06,1.19Z" style="fill: #fff;"/>
            </g>
            <g style="mix-blend-mode: screen; opacity: .5;">
              <path d="M237.58,258.8c-.82,0-1.65,.13-2.46,.41-5.43,1.87-10.46,4.24-14.96,7.06-3.54,2.23-4.61,6.91-2.39,10.45,2.23,3.54,6.91,4.61,10.45,2.39,3.51-2.2,7.48-4.07,11.82-5.56,3.96-1.36,6.07-5.67,4.71-9.63-1.08-3.14-4.02-5.12-7.17-5.12Z" style="fill: #fff;"/>
              <path d="M207.94,281.16c-2.51,0-4.96,1.24-6.4,3.51-13.22,20.77-9.81,44.09-9.66,45.08,.64,4.14,4.51,6.98,8.64,6.34,4.13-.64,6.96-4.49,6.34-8.62-.04-.31-2.58-18.86,7.47-34.66,2.25-3.53,1.21-8.22-2.33-10.46-1.26-.8-2.67-1.19-4.06-1.19Z" style="fill: #fff;"/>
            </g>
            <path d="M278.77,247.66c-8.71-2.4-15.34-9.79-15.86-18.81-.02-.44-.04-.87-.04-1.3,0-.12,0-.26,.02-.39-.02-.12-.02-.26-.02-.39,0-.43,.02-.86,.04-1.3,.52-9.02,7.15-16.41,15.86-18.81,32.81-9.08,56.92-39.16,56.92-74.86,0-4.8-.43-9.5-1.28-14.06-.14-.78-.29-1.55-.46-2.31-.12-.56-.24-1.12-.38-1.68,0-.03-.01-.07-.02-.1-.07-.29-.14-.58-.22-.87-.13-.56-.27-1.1-.43-1.65-.23-.84-.47-1.67-.73-2.5h-2.65c.09,.26,.17,.54,.25,.81,.02,.05,.04,.09,.05,.14,.15,.47,.29,.94,.42,1.41,.09,.31,.18,.61,.25,.92,.14,.49,.27,.97,.39,1.46,.08,.31,.16,.62,.22,.92,.13,.5,.24,.99,.34,1.49,.04,.17,.07,.34,.11,.51,.01,.06,.03,.13,.04,.2,.12,.57,.23,1.14,.33,1.71,.82,4.42,1.24,8.99,1.24,13.6,0,33.67-22.65,63.45-55.06,72.42-10.03,2.77-17.15,11.24-17.71,21.11-.03,.48-.04,.96-.04,1.44,0,.13,0,.27,.01,.39-.01,.13-.01,.27-.01,.39,0,.48,.01,.96,.04,1.44,.56,9.87,7.68,18.35,17.71,21.11,32.41,8.97,55.06,38.76,55.06,72.42,0,4.61-.42,9.19-1.24,13.61-1.13,6.3-3.09,12.43-5.83,18.25H189.96c-2.74-5.82-4.7-11.95-5.84-18.26-.82-4.41-1.23-8.99-1.23-13.6,0-33.66,22.65-63.45,55.06-72.42,10.03-2.76,17.14-11.24,17.71-21.11,.03-.48,.04-.96,.04-1.44,0-.12,0-.26-.01-.39,.01-.12,.01-.26,.01-.39,0-.48-.01-.96-.04-1.44-.57-9.87-7.68-18.34-17.71-21.11-32.41-8.97-55.06-38.75-55.06-72.42,0-4.61,.41-9.18,1.23-13.6,.14-.79,.3-1.58,.47-2.36,0-.02,.01-.04,.01-.06,.17-.76,.34-1.52,.53-2.28,.01-.04,.02-.08,.03-.13,.15-.58,.3-1.17,.47-1.74,.01-.05,.03-.09,.04-.14,.06-.22,.12-.45,.19-.67,.11-.42,.24-.83,.37-1.24,.01-.05,.03-.09,.05-.14,.08-.27,.16-.55,.25-.81h-2.65c-.26,.83-.5,1.66-.73,2.5-.16,.55-.3,1.09-.43,1.65-.08,.29-.15,.58-.22,.87-.01,.03-.02,.07-.02,.1-.14,.56-.26,1.12-.38,1.68-.17,.76-.32,1.53-.46,2.31-.85,4.56-1.28,9.26-1.28,14.06,0,35.7,24.1,65.78,56.92,74.86,8.7,2.4,15.34,9.79,15.85,18.81,.03,.44,.04,.87,.04,1.3,0,.13,0,.27-.01,.39,.01,.13,.01,.27,.01,.39,0,.43-.01,.86-.04,1.3-.51,9.02-7.15,16.41-15.85,18.81-32.82,9.09-56.92,39.16-56.92,74.86,0,4.8,.43,9.5,1.28,14.06,1.3,7.18,3.6,14,6.73,20.33h139.31c3.13-6.33,5.43-13.15,6.73-20.33,.85-4.56,1.28-9.26,1.28-14.06,0-35.7-24.11-65.77-56.92-74.86Z" style="fill: #baf5f6;"/>
            <path d="M354.83,352.78h0c0,4.06-3.29,7.35-7.35,7.35H168.57c-4.06,0-7.35-3.29-7.35-7.35h0c0-4.06,3.29-7.35,7.35-7.35h178.91c4.06,0,7.35,3.29,7.35,7.35Z" style="fill: #2aa494;"/>
            <g>
              <path d="M317.48,155.3c.12,.55-1.38,1.34-3.34,1.76-1.96,.42-3.65,.3-3.77-.25-.12-.55,1.38-1.34,3.34-1.76,1.96-.42,3.65-.3,3.77,.25Z" style="fill: #ff9a30;"/>
              <path d="M312.97,161.68c.12,.55-.8,1.22-2.06,1.48-1.25,.26-2.36,.03-2.48-.52s.8-1.22,2.06-1.48c1.25-.27,2.36-.03,2.48,.52Z" style="fill: #ff9a30;"/>
              <path d="M307.23,160c.12,.55-.8,1.22-2.06,1.48-1.25,.27-2.36,.03-2.48-.52-.12-.55,.8-1.22,2.06-1.48,1.25-.27,2.36-.03,2.48,.52Z" style="fill: #ff9a30;"/>
              <path d="M267.61,165.09c.06,.3-.43,.66-1.11,.8-.68,.14-1.28,.02-1.34-.28-.06-.3,.43-.66,1.11-.8,.68-.14,1.28-.02,1.34,.28Z" style="fill: #ff9a30;"/>
              <path d="M298.22,155.8c.06,.3-.43,.66-1.11,.8-.68,.14-1.28,.02-1.34-.28-.06-.3,.43-.66,1.11-.8s1.28-.02,1.34,.28Z" style="fill: #ff9a30;"/>
              <path d="M287.13,166.48c.06,.3-.43,.66-1.11,.8-.68,.14-1.28,.02-1.34-.28-.06-.3,.43-.66,1.11-.8,.68-.14,1.28-.02,1.34,.28Z" style="fill: #ff9a30;"/>
              <path d="M272.32,173.56c.06,.3-.43,.66-1.11,.8-.68,.14-1.28,.02-1.34-.28-.06-.3,.43-.66,1.11-.8,.68-.14,1.28-.02,1.34,.28Z" style="fill: #ff9a30;"/>
            </g>
            <path d="M258.88,292.88l-.52-.2-.52,.2s-4.47,34.98-52.48,52.55h105.99c-48-17.58-52.48-52.55-52.48-52.55Z" style="fill: #ff9a30;"/>
            <path d="M332.41,109.43c0,3.9-33.3,7.07-74.39,7.07s-74.39-3.16-74.39-7.07,33.3-7.07,74.39-7.07,74.39,3.16,74.39,7.07Z" style="fill: #b9dbef;"/>
            <path d="M347.48,98.55H168.57c-2.03,0-3.87,.82-5.2,2.15s-2.15,3.17-2.15,5.2c0,4.05,3.29,7.34,7.35,7.34h178.91c4.06,0,7.35-3.29,7.35-7.34s-3.29-7.35-7.35-7.35Z" style="fill: #2aa494;"/>
          </g>
          <line y1="360.13" x2="510" y2="360.13" style="fill: none; stroke: #2ea49c; stroke-miterlimit: 10;"/>
        </g>
      </g>
    </g>
  </g>
</svg>